/* XPM */
static char *result[] = {
/* columns rows colors chars-per-pixel */
"64 64 138 2 ",
"   c #050201",
".  c #0B0600",
"X  c #0D0A03",
"o  c #02050A",
"O  c #05090C",
"+  c #0B0C0B",
"@  c #130700",
"#  c #150D00",
"$  c #1D0C00",
"%  c #151200",
"&  c #1B1200",
"*  c #1F1A02",
"=  c #13150C",
"-  c #030B13",
";  c #040D19",
":  c #071018",
">  c #230C06",
",  c #250E08",
"<  c #280E08",
"1  c #241300",
"2  c #241E01",
"3  c #2A1D00",
"4  c #251F09",
"5  c #222000",
"6  c #2A2302",
"7  c #2E2B00",
"8  c #332301",
"9  c #392600",
"0  c #352B02",
"q  c #3A2D02",
"w  c #372B08",
"e  c #382D0A",
"r  c #373201",
"t  c #3B3302",
"y  c #3E3904",
"u  c #37330A",
"i  c #2C2813",
"p  c #2A2B1E",
"a  c #322F18",
"s  c #2E3224",
"d  c #313526",
"f  c #3A3A22",
"g  c #313728",
"h  c #333C2C",
"j  c #353F30",
"k  c #412F00",
"l  c #433602",
"z  c #483600",
"x  c #423A02",
"c  c #4A3D01",
"v  c #1F6F00",
"b  c #1D7A00",
"n  c #246300",
"m  c #2D6A00",
"M  c #396300",
"N  c #326A00",
"B  c #34402F",
"V  c #3B432D",
"C  c #364231",
"Z  c #3A4534",
"A  c #3C4A36",
"S  c #3B4739",
"D  c #3E4C39",
"F  c #474000",
"G  c #4D4300",
"H  c #4E4A00",
"J  c #524500",
"K  c #5A4500",
"L  c #544B00",
"P  c #5A4C00",
"I  c #5B5200",
"U  c #5E5900",
"Y  c #56561E",
"T  c #635600",
"R  c #625A00",
"E  c #6C6300",
"W  c #6F6900",
"Q  c #706400",
"!  c #756A00",
"~  c #786900",
"^  c #7B7100",
"/  c #454C2A",
"(  c #575823",
")  c #5A5D26",
"_  c #414D35",
"`  c #404E3B",
"'  c #4B5535",
"]  c #4F5932",
"[  c #42503D",
"{  c #525B34",
"}  c #5F6125",
"|  c #566037",
" . c #56633D",
".. c #5B653B",
"X. c #626525",
"o. c #656925",
"O. c #3F4E40",
"+. c #404E40",
"@. c #445345",
"#. c #485747",
"$. c #465847",
"%. c #465648",
"&. c #475949",
"*. c #4A5C4C",
"=. c #4C5E50",
"-. c #4C604F",
";. c #576542",
":. c #586646",
">. c #50634F",
",. c #4E6352",
"<. c #4E6659",
"1. c #4F685A",
"2. c #516554",
"3. c #526956",
"4. c #526759",
"5. c #556C5A",
"6. c #586F5E",
"7. c #57705E",
"8. c #59705E",
"9. c #576F60",
"0. c #596F60",
"q. c #577160",
"w. c #5B7362",
"e. c #5D7867",
"r. c #5F7768",
"t. c #5E7A69",
"y. c #617C6B",
"u. c #068F00",
"i. c #0F8A00",
"p. c #128E00",
"a. c #069A00",
"s. c #00A400",
"d. c #00AB00",
"f. c #00B100",
"g. c #00BE00",
"h. c #00C201",
"j. c #00CD01",
"k. c #63816F",
/* pixels */
"t.*.y.t.e.e.9.w.9.9.9.5.5.5.5.5.3.3.3.3.,.3.,.,.-.O.5.,.2.,.2.2.-.2.>.2.2.2.4.2.2.,.,.3.,.,.,.,.,.,.3.,.2.2.2.2.2.2.2.2.=.2.@.,.",
"e.=.t.e.e.w.q.e.w.w.9.5.4.5.5.4.5.3.3.,.,.3.,.3.-.O.1.,.2.2.2.2.2.-.>.2.2.2.2.2.-.,.3.3.5.,.,.,.>.3.,.3.2.2.-.2.2.2.>.2.2.2.@.*.",
"t.=.t.t.w.q.w.w.9.w.9.4.4.5.5.4.3.3.<.,.3.<.,.3.&.@.,.,.2.2.2.2.2.>.2.5.,.<.2.=.-.-.,.1.,.,.,.,.,.,.3.,.3.>.-.2.-.2.2.2.,.2.%.=.",
"t.2.k.t.y.t.y.r.w.w.w.0.0.0.9.8.7.7.7.7.7.3.3.5.-.&.5.3.5.2.2.2.2.2.2.4.3.3.5.2.2.3.3.1.5.3.>.,.5.3.3.5.3.3.3.5.2.2.5.5.2.5.&.,.",
"+.O.=.&.=.&.%.&.%.@.@.@.@.@.@.@.O.@.O.O.O.O.O.D A A D D O.O.` +.+.+.O.` ` O.O.O.D O.O.O.O.O.D D D O.O.O.O.O.D O.S +.+.` ` +.S S ",
"5.9.9.5.4.1.4.4.4.<.=.<.%.@.<.,.-.-.,.-.-.-.-.-.-.&.-.-.*.&.*.&.*.*.*.*.+.@.=.&.-.-.-.,.*.-.-.-.-.-.D O.-.-.&.-.*.*.*.*.*.*.*.=.",
"y.k.y.t.t.w.w.w.w.e.w.w.,.=.9.5.7.7.5.3.<.<.3.3.1.<.,.2.3.2.2.2.2.2.2.2.@.*.5.<.,.,.2.3.<.,.,.<.<.5.$.$.3.,.3.3.3.2.2.2.2.3.4.4.",
"t.t.t.e.w.w.9.w.0.9.9.9.=.&.0.4.1.3.2.2.,.,.2.2.<.,.,.,.<.2.>.2.2.2.-.3.[ $.3.,.-.,.2.1.,.,.-.,.-.3.O.$.,.,.,.>.2.2.,.2.-.,.,.<.",
"t.t.t.e.r.w.w.w.w.0.9.5.=.=.5.9.5.4.4.2.,.,.2.<.2.2.=.2.2.2.2.2.2.2.2.2.+.&.2.,.,.,.2.2.2.2.,.,.,.2.#.#.2.-.-.2.2.2.2.2.>.=.,.2.",
"t.t.t.t.w.w.w.0.0.w.9.9.=.=.9.5.5.4.<.<.<.3.,.3.2.=.2.2.>.>.>.2.*.*.>.2.+.*.2.2.*.,.3.<.2.2.-.-.-.2.#.@.4.>.=.2.2.2.>.2.2.>.2.2.",
"y.y.r.t.r.w.w.0.w.w.5.0.=.=.5.5.0.5.4.2.2.3.<.2.2.2.=.4.2.2.>.2.2.>.-.5.+.*.2.2.2.2.2.2.2.2.2.2.2.4.*.#.2.2.-.2.2.-.2.2.2.2.2.4.",
"t.y.t.e.t.w.0.9.w.9.5.0.=.=.0.4.5.4.5.4.,.2.2.2.2.2.2.=.>.>.>.=.2.>.>.2.+.*.2.2.2.,.,.2.2.,.2.2.2.2.#.@.2.>.>.2.>.>.-.2.=.2.2.,.",
"k.k.y.t.e.r.w.w.r.w.0.0.2.=.0.0.5.5.5.5.4.4.5.2.4.2.4.2.2.2.2.>.2.2.2.5.+.=.2.2.3.3.2.5.3.2.<.2.2.2.*.&.2.2.2.2.2.2.2.2.2.2.4.2.",
"<.=.<.,.=.*.=.*.=.=.=.*.+.%.&.*.*.*.*.%.#.#.#.#.@.@.@.@.+.@.#.#.@.@.+.@.` +.#.#.@.@.#.&.#.#.@.@.#.%.+.+.#.+.@.#.@.#.#.+.@.@.@.#.",
"9.=.w.9.9.9.5.5.4.4.4.4.2.4.<.<.4.2.2.2.-.,.=.2.+.#.=.*.=.=.=.=.*.=.=.=.=.=.-.=.-.-.-.-.,.-.-.-.*.=.,.=.=.*.=.=.=.=.=.=.*.=.@.@.",
"w.<.y.w.w.w.w.w.w.0.0.5.4.4.4.5.5.5.2.2.4.4.4.4.@.*.2.>.2.2.2.2.>.=.>.>.2.2.2.>.-.2.<.3.<.,.-.,.2.2.2.2.>.=.>.>.>.2.2.2.-.2.#.#.",
"w.=.y.6.6.6.0.0.9.9.9.5.4.5.4.5.5.5.3.,.3.3.2.3.@.&.,.2.>.2.,.-.=.=.2.-.2.2.2.=.-.3.2.<.2.3.2.-.>.2.-.>.2.=.=.>.>.=.>.2.>.=.#.#.",
"w.<.y.y.w.6.0.w.w.0.5.5.4.9.4.6.5.4.4.2.3.3.2.3.#.=.2.2.2.-.>.2.>.=.2.,.2.2.2.2.,.2.3.3.<.3.2.>.2.-.2.2.2.>.=.>.=.2.2.2.>.2.#.#.",
"9.,.r.w.y.w.w.5.6.6.5.6.5.5.4.5.5.2.5.3.<.3.2.3.+.=.2.,.>.-.-.-.>.>.-.2.2.>.,.2.3.2.,.3.3.>.,.3.2.>.2.2.=.2.2.>.>.>.2.2.2.4.=.@.",
"q.<.y.w.w.w.w.w.w.6.6.5.0.0.5.5.5.5.3.4.3.3.5.5.+.2.4.,.,.4.4.,.,.4.2.2.2.2.2.2.3.2.3.3.3.3.3.3.2.2.2.2.>.2.2.>.2.2.2.=.2.4.#.+.",
"6.2.y.w.w.8.8.6.w.8.6.6.5.4.5.4.5.5.3.3.3.,.] } Y ( X.o.o.o.o.o.o.X.X.} ) } :.2.,.2.2.3.1.,.,.,.2.2.2.2.=.=.2.2.2.2.2.=.=.2.=.@.",
"6.*.y.w.6.6.6.6.6.5.5.5.5.3.4.2.3.<.2.<.3.&.F I G J E ! ^ ! ^ ! ~ ~ ~ T c z { <.-.3.2.3.<.<.3.,.=.2.2.2.>.=.=.=.2.>.=.>.=.>.#.+.",
"*.#.*.*.&.&.&.&.&.&.#.%.` @.#.@.$.[ O.O.%.D y H L H H E H I F ! R I T q G l V S S D D D D D D A _ ` ` j +.+.+.+.@.+.+.+.+.@.` S ",
"w.w.w.w.6.5.8.5.5.5.4.4.%.2.4.5.3.<.,.,.1.&.F U U U 7 H 7 U 5 y H t J & 7 L { ,.*.,.,.<.,.,.,.-.=.=.=.+.2.2.*.>.2.=.2.2.=.=.=.2.",
"e.8.y.w.w.8.8.8.8.7.6.7.*.2.5.5.3.5.5.3.3.-.F E W W r 7 F R 5 5 L % 7 2 6 E ..4.,.3.3.3.5.3.3.,.2.3.-.@.2.3.2.3.2.2.4.5.2.2.2.2.",
"w.y.w.w.w.8.8.8.8.7.5.8.*.,.5.5.3.3.3.3.3.*.y U E U 7 X L H 7 7 r t y & x E | 4.,.,.3.3.3.,.,.3.3.3.>.@.-.,.,.,.>.2.2.2.2.2.5.2.",
"w.y.y.6.8.8.8.6.8.8.5.8.-.2.5.5.5.3.3.5.5.-.y R Q I H H I x F I y L L y L E | 4.3.3.<.5.5.,.3.5.2.3.2.@.2.3.3.2.=.2.2.2.3.5.2.2.",
"w.w.w.w.8.8.5.6.8.7.5.7.&.,.5.5.5.5.5.3.3.-.y U M m N N N M R T L L L P G P ..1.2.>.2.3.3.,.,.,.,.3.3.@.-.,.,.2.4.2.4.2.2.2.3.3.",
"w.6.6.6.8.5.6.6.5.5.3.5.#.2.4.5.5.5.5.3.3.-.y I p.f.d.s.g.u.L L P P P T J x ..<.-.,.3.3.<.2.,.,.-.2.2.O.-.,.,.,.2.2.2.<.3.2.3.3.",
"r.w.6.y.w.6.6.8.8.8.6.5.#.2.5.5.5.5.3.3.5.-.y I i.h.h.s.j.a.L L P P c G L z ..<.2.2.3.5.3.3.<.,.2.3.3.@.,.3.,.3.2.<.3.4.3.3.3.5.",
"5.6.6.5.2.2.5.3.3.2.2.2.@.*.,.,.3.-.-.-.3.#.y I m b b v v n L J K l # 2 G x | &.*.-.-.-.2.-.,.*.-.-.-.D -.-.*.-.-.-.,.,.,.&.-.,.",
"#.#.:.2.*.&.*.*.>.>.*.#.@.#.#.#.#.#.$.[ #._ t L P P P P K K L c c k # * G x { &.$.$.*.&.*.&.&.$.@.@.&.@.@.@.O.@.O.D @.@.%.@.@.D ",
"8.:.y.8.8.7.5.7.6.6.7.7.5.3.3.5.3.3.7.5.3.-.y L x t z l q q G c z k & 6 c t ..5.3.3.3.3.7.3.3.3.3.3.3.3.5.,.3.5.,.,.3.3.3.3.3.D ",
"8.2.w.8.8.8.7.7.6.8.3.5.5.3.3.5.3.3.:.3.3.*.u G 3 $ 1 > $ $ l l k 9 + f c t  .5.3.3.3.3.5.3.3.3.3.>.3.3.,.,.3.,.3.3.3.,.3.3.3.D ",
"5.3.e.8.7.5.5.5.6.5.5.5.3.3.2.5.7.3.3.3.3.-.y c 9 e w w e i q 9 > @   C x t ;.<.3.,.3.3.3.3.3.3.3.3.3.3.3.,.,.3.,.3.3.3.,.3.,.D ",
"6.2.e.8.5.5.5.7.5.5.5.3.2.3.<.3.3.>.>.>.>.$.r G q 6 6 6 4 4 0 1       a x t  .<.,.3.3.3.3.3.3.,.,.3.3.>.3.,.,.>.3.,.,.3.,.3.3.O.",
"6.,.w.5.5.3.5.5.5.5.3.3.2.3.2.3.3.>.2.>.3.&.t G = O O O O . 8 $ & 2   2 l t  .<.,.3.3.5.3.3.3.2.3.3.3.3.,.3.,.,.>.,.3.,.3.,.-.D ",
"3.2.8.5.5.4.7.3.5.2.3.>.<.4.2.2.3.3.,.,.3.*.r G = - O - - + 8 $ # %   * l t ;.,.,.3.,.3.3.2.3.>.,.,.<.3.,.3.,.,.,.,.3.,.,.,.3.O.",
"8.2.w.w.5.5.5.8.7.5.5.3.4.4.4.4.3.7.5.3.7.*.t G = - - ; o X q 1       # r r ;.1.5.5.7.5.5.5.5.3.5.5.5.5.3.5.3.3.5.5.3.5.5.7.3.-.",
"&.@.&.#.$.@.#.$.$.#.[ #.D @.@.#.@.@.&.D &.S 0 G = ; O ; o X q 3 2 . @ . 0 0 ' %.@.@.$.O.$.$.$.$.$.O.O.$.D $.O.$.$.D $.$.D O.O.Z ",
"[ [ [ _ _ ` ` ` [ ` A D C A A D D A A A A V r G = ; O o O + q 9 1   $   6 q / S D D D S A A D D S D D C Z A A A A A D A A A D A ",
"[ #.#.[ [ ` ` ` [ [ ` [ j A D ` D A D A ` V r x + ; : ; ; O l q 3 . # @ 6 0 / D A D D [ [ [ D A D D D A A D A D D D D D A A D D ",
"[ [ [ [ ` ` ` ` ` D ` D j A D D D D D D _ B 0 t 3 3 6 6 6 3 k 0 $ @   . 1 1 V D A D D [ D D D D D A D A A A A A A A D D A A D A ",
"[ [ [ [ ` A ` ` D D D A h D D D D D D A [ Z u y l l l x l l e k q w 0 w t y V D D D D [ [ D ` A A D D A A D A A D D D D D A A A ",
"[ ` [ ` D A ` ` ` D A A h ` D A D A A A A A A A Z V A _ Z _ _ Z A _ [ Z A _ A A D D A ` D D ` A A D D A A D D A A A D A D A A A ",
"[ [ ` ` ` D ` D ` A ` D j D A D D D A A A A [ A D A A A _ ` A D D A D Z A _ D D D D D D [ D ` D D D D A A D D A D D D D A D A A ",
"[ [ ` ` ` ` ` D ` A ` ` C A D D A ` D D _ A A A A ` A A D D A S ` _ D Z A D D ` D D [ [ D D D D D D D A A D A D D A D D A A D A ",
"` ` D D D A A A ` A A A h A A A D A A A A A A A A A A A A A A A A A D C Z A A D A D D D ` D D A D A A A A A A A A A D A A A A A ",
"C j A j Z j j C Z C C j h C C A A Z Z C C B C C B C B C j Z Z j C C Z C Z A Z Z Z Z Z A A Z Z Z Z Z Z Z C C C C C Z C C C j C h ",
"D A ` ` D A D D ` ` ` A A D D ` D D A A D A D A B A A A A ` ` _ D A D D D D A A D [ D [ D D D D D D D D D D A D D D D D D A D C ",
"A C ` D A A A A A A A A C A A A A A Z A A A A Z C A A A _ S A A Z A A D A A A A A D D D D D D A A A A D A A A A A A A A A Z A C ",
"A A ` D S A D A A A A Z Z A A Z A Z Z A A A A Z C A A A A S _ Z Z A A A D D A A A D D D D D D A A A A D A A A A A A D A D A A C ",
"D A D D ` D A D D D A A _ _ S A A D A A A A A A Z A A A A A _ A A D D D A D D D S D D D D D A A D D D A A D A A _ S A A A A D C ",
"A Z D Z D D D A D A A D D A A D A A A A A A A C Z A A A A A A A A A A A A A D D A D D D D D D D D D A A A A A A A Z _ A A A ` B ",
"A A ` D D D D D ` A A ` ` A A A A A A A Z A A A C A A A A _ A A A A A D A D A D D D ` D D [ A D D A D A D A A A Z _ _ A A A A j ",
"A Z ` D A D A D D D D A A A A D A A A A A A A C C A A A A A ` A A Z A D A [ A A D A D [ D D D D A A D D A A Z A S _ A _ A Z A C ",
"j B C B B B C C C C h C h B h C B B B B B B B B h Z C C B C C C B B C B C C C C C Z Z Z Z C Z C C B B C B C B B j j j C C j C h ",
"A S A A Z C A A Z Z A Z h S A Z A Z B C C Z Z C Z C Z Z Z Z Z C C Z A g A C Z C A A A Z A S A A Z Z A C g A Z C Z Z Z Z A Z C Z ",
"D D D D A A D A D A A A B D A A A A A A A A A A A A A D D A A A A D A B D D A A ` D [ D D D D D A D D A B D A A _ A A D D A A A ",
"D D A D A A A A A A A A h Z A A A A A A A A A A A A A A D A A A A A A h D D D A A D D D D D D D A D D Z h A A A S A D A A A A S ",
"D D D D D A A D A A A A h A A A D D S A A A A S A A A A A A A A A A Z j A D D A D D D D D D D S A D D A g A A D A A D S A A A A ",
"D O.D D D A A D D D A A h A D ` D D D D A D D O.A D A A ` D D D A D S C D D D D D D ` ` [ D D D D D D A C S A A D D D D A A A A ",
"d d g s s s s s g d s d p d d d g g d s s s g g g g s s g g g h g g g s h h B g g h h j B h h g h h B g s h g g g g h d d d s g ",
"> > > , > > > > > > > > > > > 1 , , $ $ > > $ , $ > > $ > > , , & > , 1 > > > & , < < 1 < < , , > , & & , 1 > > > > > > > > > & "
};
