/* XPM */
static char *_1695652229[] = {
/* columns rows colors chars-per-pixel */
"64 64 59 1 ",
"  c #2D2D2D",
". c gray18",
"X c #2F2F2F",
"o c gray19",
"O c #313131",
"+ c #323230",
"@ c #323232",
"# c gray20",
"$ c #343432",
"% c #353533",
"& c #343434",
"* c #353535",
"= c #363634",
"- c #373735",
"; c gray21",
": c #373737",
"> c #383836",
", c #393937",
"< c gray22",
"1 c #393939",
"2 c #3A3A38",
"3 c #3B3B39",
"4 c #3A3A3A",
"5 c gray23",
"6 c #3C3C3A",
"7 c #3D3D3B",
"8 c #3C3C3C",
"9 c gray24",
"0 c #3E3E3C",
"q c #3F3F3D",
"w c #3E3E3E",
"e c #3F3F3F",
"r c #40403E",
"t c #41413F",
"y c gray25",
"u c #414141",
"i c #424240",
"p c #434341",
"a c gray26",
"s c #434343",
"d c #444442",
"f c #454543",
"g c #444444",
"h c gray27",
"j c #464644",
"k c #464646",
"l c gray28",
"z c #484846",
"x c #484848",
"c c #494949",
"v c gray29",
"b c #4B4B4B",
"n c #4C4C4C",
"m c gray30",
"M c #4E4E4E",
"N c gray31",
"B c #515151",
"V c #535353",
"C c gray35",
/* pixels */
"555wwyyyyggywwwgyggnBnggccgg5wyy55w5wywwywyygyw5ww555;55##5w5;;5",
"ww555555wyywywyywyygccgggyyw55wwwwywwywwywgwyy55;5wy55;;5;5ww55y",
"5555w5wwwwwwwwyyyywyccggyyw;555wwwwwyyyygwgwyw5w555;55;;5;55w55w",
"5555wyygw5w5wwwwyywycngyyyw5ww5y5555wwyyyygww55ww;.#;w5#;#;5wyww",
"555555wyw55w5wwwygygncywycgyyywyyywww5wyywgww5;5;;##;55;##5wycgc",
"55555wwwwwwwwwwwygggccgwyggyyywwywwww5ygwwgww;;5#55;#5wyw5wygcgc",
"55;;5wwwwwyggyyywggygcggggyyw5w5w5wwwwygwwy55;555w5;#5wgwwggygyg",
"5;;;5wywwygggyyywyyyggggcgyy55w5ywgywwwywwy5555w;5555www;5ggggyc",
"555;#wyywyggcngyy5wwwggywggyyygyygyyywyw5wywywyw;5yywwyw5;5wwwyg",
"5;;##5ywygggyygyyyywyccgygyywyyyygwyywywwwyww5w;wwyy5wygw5;5yccg",
"w;#;55ywgccgywyyyyy5ycgggyyyyyyyccyyygggyygwyww#55ww;5ygwwwygccg",
"y55ww5yyggggywyywgw#wcgggyyyyyywccgccgcgwyy5w5w555;5;;wy5wycccgc",
"y5wygwwywwywwwwwwyw#wncgyyyywww5gggccygy5wgw555;w5;5;5;;w;wgcccg",
"w;5gywwyyw5ww5wwwww#wncgygww5ww5wyycggyyygg55;55w;#;;####;wnncgg",
"w;;wwwyyyywww55w5;55wcccgyyw55555wyggwyyygg5;5ww5;;;####.5cncggc",
"g;#5wyyyyygyw55;5;wwwgcggyyyw5;w5wyyw5wwwww#;5yww55w;;55wwgyygcc",
"yw5;5ygycwyw555555w;gcgnncgywww5>636t66>55w.;;5w5;555wygyw5;555g",
"w5;5;55ww;w55w5ww;;#wggcccggygyytd6tt6t655w.###;;;wyygcgywwwww5y",
"y55ww5www555wywyw5;;5cccgcggyyywdzttzdtt5wy###;5;;5wyyywyw55yywy",
"y555w5ww55;;5ywy5####cgggggyyyw5tdttddtr;5w###;55;;5;555yyw5ygyg",
"y55wwyywwyw5ygyy55;5;ncggcggggygttttzzttwycww5www555;5ywww55wwwg",
"ccgggcngccccnngccggggcgygggggyyydtt6tdttyycgyyggywwwwygygggggcgc",
"nggggccggycggncycgcccgwwgyyyw5556>>+%>#5;;yywygyyw555wwwwwyyygwg",
"cyyyyyyggwggynncgycgnywyyggyw;;wt36%>6%6;;yywyyww;#;55w5yycyggyc",
"w55wggyggyggcggcggggcywwwywy;w;;6tr>>tt6;#wyy5;;ww5###5;55ycgwwg",
"ywwwwgyyyyyggggyyggggywwwwww5w55>6r66t6>;;yw5;5wwww;#;;5#5wygggy",
"wwywwyygywwyyywwwgyygyyyw55555w;666>>66>;;w55#;ywww5;;5w5wy5wgnn",
"yggwwgyywyyyww5wwywwwgggw55;w5w566>>>>66#5y;5;;w5;;;;#5y5;55#;yV",
"gccgwywwwwyw5;5wwyw;wwyww;55w5w53>6666>>wwg5w5#5w;;#;#;5;wggwwgC",
"yyywwy5;;ww5;5wwyy55yyyyw555w5w5666r6666gyy55;;#5;;5ww55#ww;;wnB",
"y555wyw555w55555555wggyw555ww55wttt666ttywy;;;;#;;5wyyyw5ww##ynn",
"yw5wygww5www555;;5;wgw555w5w55;w6tddttt>wwy5;55#;555wwy5ww5;;;wc",
"wy5#wywwyyy;;5y;w5#5wc5w5yygw;;wttyyyy55;5y5;;;#;;;;;;;w5w55;#yg",
"yw5;55;wyyy5w5w5w5;5wc555wyww55ww5wwww55;;g5;##..#.#;##5yyw;;5gy",
"w5;;;##;wwy5w5;w5555wg;5555wwwww555;5w5w;5y;#.#..###;###5yy5#5gy",
";;;5;#.#wgy5y;;55ww55g55;55wwww5w55;;5ww55w..######;;;###5y5#;wy",
"5;;;;5555yy5w;5;5ww55gw5;55ww55;5;;#;5;5w5w##.##.#;;5;#.##;;;55w",
"5;;;;wgy5ww;5;;5;5;#;gw5;5ww5555555;;;;555g;;###.;;;;;.#;#;55;;w",
"5;5;;5ww5;5#5;;;;;#.;gw55wwwwwwww5w555;555y5;;#..;;#;;;;;5w5#;;y",
";#5w;;555#;;5####;#.5cywwwwwwwwww5w55w;;5wg;;;####;##;;55;;.#5;w",
"w55555ww555;55;;;5#;#cgggygggcgwwwwwyyyw55w;;;#;;;;#;5;.#;w;;;;5",
"ww55;;;5;;;;5www;5.;#gggncncccgwwygyywww;;5#;;;;5;##;;;;.#;;;5;;",
"yyyywwwygyygwwyywy5wwcggcgcgyyywggcgggggyggygggyy5;wyw5y5wywyywy",
"wwygyyyccyyyw5wwygygwg5;##;;;#;#55;;;ww5ggcyggyww5;5w55w55w;;;5w",
"5wyyywyygyywwggwyyggw5#.5;;5;5;;5;#;5wwwwwy555;###;;5;;5w55555;w",
"wwggyyycgggygnBggyggyw;;5;;;;;;#;;5w555w55y5w5;##;55;;55;;5;55#5",
"wygccggcygyygccgyw5wyw;;55w;;5w;;;555555;5y5w5;5;;;555;#;#5;55;w",
"gggggyygyyyycgygy55wyw;;#;5;#wyw;###;55555g5ww5w5;;5w55;;##.#5;w",
"ggygggyyyggggccgy555ww;;;;55#;5;5#.;;5wwyyyyw5#555w555#w;5;;w5#w",
"gygccggggyyygyyyyww5yw;5;555;;;;.##;55wyywyyw5#w;55555;55;#;w5;5",
"yggggggcgywyw5wwgywwyw#;;;55;;;5.#;555wyywyyww;w5wy555;5w5#;;555",
"gggcgggggyyywwwygyyyyw#;;###.;;;;;5555ygw5ww55;wwyy55w;55;55;#;w",
"yggggcggggggygyywwwygy5w;#.##;;#55w555ygw5w5#;;5w555ww5w55ww;;55",
"yygyygywwggyygywwwywyw5w;.#;5555#;555wwyw5w5#;555;;;ww;w5555w55w",
"yggyyyw55ygyyyywwwyyyy;;;#;;555;#;55;5w5ywgy#555555;;5#;5;;;55;w",
"wyggggyy5wygggygywyyyy;ww555###.;5w5;;5wgycy#;5##55#;;;5;5##;#;y",
"gyycyw5ywyyyyyywywywww;wyw##;##ww5;;5#;wgygw;;;####;###;#;#;5#5w",
"wyyyyywwwygyyywww55wyy;;ww555##w###..#;wywgy5;#########555#55;yg",
"wyywygy55yggwww5w;wwgg555;;;#..;##..#;55ywgw55;5.#;;;#;;;55ww5yg",
"wywwwyy5yyyggww55wwygy5w5;..##.#;.###;5;w5w5#;#;;;;;5;;;;55wywwy",
"ywwwyyywyyggyyyyyyggcy5w5;;;;;;55.#55www55w5###;55;;5555ywyyywwc",
"wwwygyywwyggy5wggyyycg5;#.;5##;;5;;ww55w555;###;5;##;5wwwwyyyywg",
"yyygggyywyggw5ycgyyycg55#.#;#.;#55555;#;;#5;.##55;##;5w555yggywc",
"gggyggccncccgygccgcgcg5ww;;5;5w5yyyw555w55yw;5wwww55www5w5gygcyB"
};
