/* XPM */
static char *result[] = {
/* columns rows colors chars-per-pixel */
"64 64 171 2 ",
"   c #230C06",
".  c #280E08",
"X  c #28271F",
"o  c #272521",
"O  c #2E3224",
"+  c #313526",
"@  c #32362A",
"#  c #333B2C",
"$  c #2E3735",
"%  c #353E31",
"&  c #383D38",
"*  c #740E0C",
"=  c #51362F",
"-  c #413E35",
";  c #423F38",
":  c #682B27",
">  c #722926",
",  c #673A35",
"<  c #723B35",
"1  c #7E3832",
"2  c #34402F",
"3  c #364231",
"4  c #394534",
"5  c #3C4A36",
"6  c #3B463A",
"7  c #3E4C39",
"8  c #424036",
"9  c #44433A",
"0  c #4A453C",
"q  c #404E3B",
"w  c #4D493E",
"e  c #42503D",
"r  c #62443B",
"t  c #2B3A41",
"y  c #363F42",
"u  c #3F4E41",
"i  c #3E4B4B",
"p  c #385566",
"a  c #414644",
"s  c #404E40",
"d  c #4D4C43",
"f  c #444B49",
"g  c #514E44",
"h  c #445345",
"j  c #465648",
"k  c #4A574A",
"l  c #475949",
"z  c #4A5C4D",
"x  c #545147",
"c  c #5D5146",
"v  c #545348",
"b  c #59554B",
"n  c #575A4D",
"m  c #5D5B4D",
"M  c #4C5F50",
"N  c #475758",
"B  c #5E5C52",
"V  c #6D4F44",
"C  c #704D46",
"Z  c #67574B",
"A  c #615B4E",
"S  c #635E52",
"D  c #4C604F",
"F  c #50634F",
"G  c #4E6352",
"H  c #516554",
"J  c #5D6153",
"K  c #526956",
"L  c #536658",
"P  c #5A6658",
"I  c #556C5A",
"U  c #586D5C",
"Y  c #57705E",
"T  c #59705E",
"R  c #656254",
"E  c #696456",
"W  c #67645A",
"Q  c #6B6658",
"!  c #66685B",
"~  c #6C6B5D",
"^  c #736659",
"/  c #726B5D",
"(  c #425C6A",
")  c #576F60",
"_  c #577160",
"`  c #5B7362",
"'  c #5D7967",
"]  c #5F7768",
"[  c #5E7A69",
"{  c #476170",
"}  c #666A60",
"|  c #726D61",
" . c #7C6D60",
".. c #617C6B",
"X. c #757365",
"o. c #797466",
"O. c #7C766A",
"+. c #77796B",
"@. c #7D7A6A",
"#. c #8D0202",
"$. c #8B0B0A",
"%. c #940404",
"&. c #8D1D1A",
"*. c #9C1716",
"=. c #A40000",
"-. c #A80000",
";. c #A90A0A",
":. c #B30707",
">. c #BE0000",
",. c #AB1513",
"<. c #B21413",
"1. c #BC1816",
"2. c #B5221E",
"3. c #97312E",
"4. c #833F3A",
"5. c #9A3832",
"6. c #A82724",
"7. c #A83530",
"8. c #BA3530",
"9. c #C50101",
"0. c #CC0000",
"q. c #D50101",
"w. c #D80000",
"e. c #CB1A18",
"r. c #DD1B19",
"t. c #E00000",
"y. c #C72926",
"u. c #DD2725",
"i. c #D23B37",
"p. c #D9423C",
"a. c #9E4A43",
"s. c #AA4E4A",
"d. c #BA4A47",
"f. c #BC534B",
"g. c #B7615B",
"h. c #827C6D",
"j. c #94786B",
"k. c #837C72",
"l. c #D2524B",
"z. c #CB5B53",
"x. c #C66A61",
"c. c #D96761",
"v. c #63816F",
"b. c #858272",
"n. c #8B8675",
"m. c #8E8977",
"M. c #8C8A7B",
"N. c #948F7D",
"B. c #92917F",
"V. c #9C927D",
"C. c #316080",
"Z. c #3F789D",
"A. c #457393",
"S. c #4682AB",
"D. c #498AB4",
"F. c #5EAAD6",
"G. c #65B7E5",
"H. c #6CC5ED",
"J. c #74D2F0",
"K. c #949182",
"L. c #9D9584",
"P. c #9F9F8D",
"I. c #A19B86",
"U. c #A9A594",
"Y. c #B5A997",
"T. c #B5B1A1",
"R. c #C4AA9A",
"E. c #BBC2B4",
"W. c #C6CCB8",
"Q. c #C2D1BD",
"!. c #C3D9C4",
/* pixels */
"[ z ..[ ' ' ) _ _ _ ) I I I I I K K K K G K G G D l K G H G H H H F H H H H H H G G K K K G G G G K G K H H H H H H G G G K h G ",
"' M [ ' [ _ _ ] ` ` ) I L L I I I I K G G K G K l u K G H H H H H M H H H H K D D D G K G G G D K G K G K F F H M H H H G G h D ",
"] G [ [ ] _ ` _ _ _ ) I L I I I K K K G K K G K D l K G L F H H H z H K G G G H G G G G G G G G G G G G K D G H H H H H G H h G ",
"[ G v.[ ..[ [ [ ] ` _ _ ) ) ) I Y Y I Y I K K I D i K K K K H H L H L K U K K K G K I I Y K G G K K K Y L L H L H H P L H I l G ",
"u u M l M z l l j j i h h f h j u u i u u 7 u 7 4 6 u u u u 7 u s h 7 7 7 u u u u u u u u u 7 u u 7 u u 7 u h 7 6 u s q 6 h 6 6 ",
"I ) I I L L K L L G G G l h G G D D G G D D D p D l z z l D z z z z z z u h G l M D D D D z D l D D 7 u z D z z z z z z z z z z ",
"..v...[ [ ] ` ` ` ` ` ] G z ) I I Y I I K K K K K K K G G K K K H H K K u D I G G G G K G K G G G I u D K G G H K L H H K K K I ",
"[ [ [ ] ` _ _ _ _ _ ) ) M l ) I K I G K G G G K G G G G G G G G H H D K u j K G G G G K G G G G G K l l K G G G H H G G G G G G ",
"[ [ [ ] ` ` ` ` ` _ ) U M z ) I I L K G G K K G H H M H H G H F D H n K s z H G G G G G G G G G D K j h K D z H H H H n H z H H ",
"[ [ [ ] ] ` ` ) _ ` ) ) M M ) I I L G G L K K G H H M H H n H H H z G H q l G H G G K K K H G G F H j h H G n F H F H H H G H H ",
"v...[ [ ] _ ` ` ` _ _ _ M M I I ) I L K K K K K H H M H H H H H H H G H s z K H H H G K K H G G K K z j K H H H H F H H H H H H ",
"[ [ [ ` ' ' ) ) _ _ U _ M M ) L I K I K G G G K H H H F D G F D H H D H q z H G G H G G H H G G H H l h H D H H z H M H M H H G ",
"v.v...[ ' [ ' ` [ ` _ _ L G I I ) I I I H I I H H L H H G H H H H H H H q z K H K K H I I H K K G K z j K H H F H H H H H H L H ",
"G G G G z N z z M M z N f h l M z z j j j j j j h h h h h j j h h h h j 6 h j j h h h l l h h h j j h q h h h h j h j h h j h h ",
"_ N ] ) ) ) I I I K L G G G G L L G G G G G G H q j D z z z D D z z z D G G z z D z G G G G z D z z M G D z z z n D z z l D h h ",
"` G ..` ` ` ` ` _ _ ) L ) L I ) I I I G I G H K h z H H H H H G F n G G H H H H G G H K G H G G F H H H H F D D H H H H H H l j ",
"` L ..` U U _ _ _ _ ) L I I L I I I G G K K G K h l F F H G H n F z G F F H H F G G K G K H G D n G H G H D z z F H G H H z l h ",
"` G ....` U _ ` _ _ U U L ) I I I L I K I K K K h D H H H F F H H z H H H H H H G I G I K K G K G H H H G G H H H D n H H H z h ",
"_ H [ _ ..U ` ) ) U I I I I L I I G I G G K G K h z K D n H D D M H F F H z D H H G G K K G G K H F H H n G H H z H H H F K z h ",
"_ G ..` } ..` _ ` _ T U ) ) I I I I I K K K K I h D P K K I P K P I P P U U U K H I G I K K K I H H H H H M H F H H H F H H l h ",
"T H ....` T Y Y _ ` _ U I I I I I I I K K I K K g d n n J ! } | / / o.+.+.+.@.b.H G G U I G G G H H H H z n H H L H H M F H z h ",
"U z ` _ Y Y Y Y I I I I I L G H K K G K G G G G Q * #.#.%.=.-.%.j.L.7.-.a.K.Z o.U G K G K G G G n H H H G D D M F M M H z H k q ",
"z k G l l l l l k j h h u h j h u h u u h u u h ^ ,.2.2.y.y.2.<.Y.W.p.0.c.!.h.@.h 6 7 7 u 7 6 7 6 7 7 6 h q u s s s s s s s q 6 ",
"_ ` ` _ I U Y U I I I I j G I K K K G G K K G K ^ 6.s.7.f.x.d.8.y.f.e.w.u.l.5.@.I D G L G G G D D D z s G G z G M H H G G M G H ",
"..T ..` T T ` T T Y Y Y z H U U I I I G K K K K / $.*.3.6.6.;.:.>.9.0.w.q.0.#.M.U G K K I K K G H K G e G G G G L H H I G G K K ",
"` ..` ` ` T T Y Y Y U T l G I K K K I K K K K F / $.*.5.s.s.;.9.i.p.r.t.r.p.3.B.Y G K K K G G G K H G h G G K K H H K G G K K K ",
"` ` ` ` T T Y Y T Y I Y D H I I K K K I K K K K  .#.-.,.<.9.9.9.R.Q.i.0.z.!.@.B.T G G I K K K K H H K h K K K K F H H K K I K K ",
"` ..` ` Y Y U U T Y I U l G K U Y I K I K K K K  .&.,.<.1.e.e.e.R.W.f.:.g.E.k.B.U G K K K K G G K K K h D D G G H H K G G K G K ",
"` } T T T T U Y U U I I l D K I Y K K K K K F K / ^ X.o.h.L.U.L.U.Y.T.Y.Y.U.U.U.I G H H K G G G G G K e D G G G G G G G K K K K ",
"' ` T T T T Y T Y U Y Y l H I U Y Y K K I I I I / E ~ / X.b.N.n.L.I.I.V.I.P.B.n.U G I I U K K G H K G h G K K G K K I I K K K I ",
"U U U U K D K K K K H F e z H H G G D D F D D D / o.m.M.| & & @ y ( { p t g P.v.H z G G G D G l z D D 7 D D D D D D G G G D D G ",
"z j F D D D D D D z z k j j j j h j h h j h j j E o.M.k.W i N $ A.G.J.H.S.f V.n.z j l l l l l j j j l h u l u u u u h h h h u 6 ",
"Y K ..T T Y Y Y Y Y Y U U I K I K K K Y K K K K S | k.O.S ; y $ A.F.H.G.D.N N.X.Y G I I I I G K K F K K K G K K G K K K K K K 7 ",
"U F ' T T Y Y I U U K I K K K I K K K I K K K D m S | | W @ X o p Z.D.S.C.f m.! Y G F K I K K K K K K K K G K G K G K K G K K 7 ",
"U H ' T Y I U U Y U I I K K G U K K K F F K K K R b / / W d 6 9 i N i f f x X.W K K K I I K K K K K K K G G G K K G K K G K G 7 ",
"U H T Y Y I K Y U K I I K G K G K K K F F K K K S m | | ^ | | X.| k.@.h.@.@.~ J K K K K K K G K K K K K K K G G K G G K G G G l ",
"U G ` U I I I I I K I K G I G I K K F F G K K G B x b B Q Z Z | | X.+.o.~ / Q b K K K K K K K F G K K K K K G G G G K K K G D 7 ",
"I D T I K K I I K K K G G K H L K K F F K K G G v c S W 4.4.4.< ~ h.X.X.| Q S n K K F K K K K K G G G K D K D D G F K G K D K u ",
"T G ' T I U Y Y Y Y I K I I K K I I K K I K U H b g d r < P ! 1 = g w x b v b v I I I K I I I K K I I I K I K K I K I I K K K l ",
"l h l j l h h h l h h h 7 e h j h e D e h h h s g b J C , P k , V Q R Q m B b w j j j j h j l e l u u l u h h l j e u l u l u 5 ",
"e e e e q q q 8 q q 7 7 2 5 5 7 5 5 7 7 5 5 5 5 0 0 - w > : : : 0 w w w - 9 g 9 q 5 7 5 7 7 7 7 7 5 5 2 4 5 5 5 5 5 5 5 5 5 5 5 ",
"e h e k e e q q e q q q 4 5 7 q 7 7 7 5 5 7 q q 9 9 c g Z r , b A A E Q W R g 9 q 7 q e q q 7 5 7 7 7 5 5 7 5 7 7 7 7 7 7 5 7 7 ",
"e e e e q q q q q q q 7 2 5 5 7 7 7 7 5 7 7 5 5 8 8 8 q - 9 9 9 9 a 0 0 w d w 8 q 5 q q 7 7 7 7 7 7 7 5 5 5 5 5 7 5 7 7 7 5 5 7 ",
"e e e e q 7 q 7 7 7 7 5 2 5 7 7 7 7 7 5 7 5 q 5 # 8 8 w d d d d g x d x d x d 4 5 q q q q q 7 5 7 5 7 5 5 7 5 5 7 7 7 7 7 5 5 5 ",
"q e q q 7 7 q 7 q 5 7 5 2 q 5 5 7 5 5 5 7 7 5 5 5 4 4 5 4 4 4 4 4 4 7 2 4 4 4 7 7 7 5 q q 5 q 7 5 7 7 5 5 7 7 5 7 7 7 5 5 5 5 5 ",
"e e e q q 7 q 7 q 7 7 7 2 5 q 5 7 7 5 5 5 5 7 7 5 5 7 5 e e 5 q 7 7 e 4 5 e 7 7 7 7 q q q 7 7 7 7 7 7 5 5 7 7 5 7 7 7 7 7 5 5 5 ",
"e e q q q q q 7 q 5 7 7 2 8 5 q 5 q q 5 5 5 7 5 5 q 5 5 q 5 5 5 q 7 7 4 5 7 7 e q q 5 q q q 7 7 7 7 7 5 5 5 7 7 5 5 7 7 5 5 5 5 ",
"q q 7 7 7 5 5 5 q 5 5 5 2 5 5 5 q 5 5 5 5 5 5 5 5 5 5 5 5 5 5 5 5 5 7 4 4 5 5 7 5 5 q 5 7 7 7 5 7 5 5 4 5 5 5 5 5 5 7 5 5 5 5 5 ",
"4 2 4 4 2 2 2 2 4 4 4 2 # 2 2 4 5 2 2 2 2 4 5 2 2 4 2 2 4 2 4 2 4 2 2 4 4 5 4 2 4 4 4 5 4 4 4 2 4 4 5 4 3 4 2 4 3 3 4 3 3 3 3 # ",
"7 5 q q 7 7 q 7 q q 7 7 5 7 q q e 5 7 7 7 5 5 5 2 5 5 7 5 8 5 q 5 7 7 7 7 7 7 5 5 q q q q q 7 7 7 7 7 7 7 7 5 5 7 7 7 5 5 5 7 3 ",
"4 4 q 5 5 5 5 5 5 5 4 4 5 5 4 5 5 5 5 5 5 5 5 2 2 5 5 5 q q 5 4 5 5 5 5 5 5 5 5 5 7 7 q 7 7 7 5 5 5 5 5 5 7 5 5 5 5 7 5 5 5 5 % ",
"5 5 q 5 5 5 7 5 7 5 7 4 4 8 4 5 5 5 2 5 5 5 5 5 2 5 5 5 5 5 5 5 4 5 5 5 7 7 5 5 5 5 7 7 7 7 7 5 5 5 5 7 5 7 4 5 5 5 5 5 5 5 5 3 ",
"5 5 7 7 7 7 7 7 7 7 5 5 5 5 5 7 5 5 5 5 5 5 5 5 2 7 5 5 5 5 q 8 5 7 5 7 5 7 7 5 7 7 7 7 7 7 7 5 7 7 7 5 5 7 5 5 8 q 5 q 5 5 q 2 ",
"4 5 7 5 q 7 7 5 7 5 5 7 7 5 5 5 5 5 5 5 5 5 5 2 2 7 5 5 5 5 4 5 5 5 5 5 5 5 7 7 7 7 7 7 7 7 7 7 7 7 5 5 5 5 5 5 4 4 5 5 q 4 q % ",
"5 4 q 5 7 7 7 5 q 5 5 q 5 5 5 q 5 5 5 5 5 5 5 4 4 7 5 5 5 q 5 5 5 5 5 7 5 7 7 7 7 7 q 7 q 7 7 7 7 7 5 5 7 5 5 5 5 q q 5 4 5 5 2 ",
"5 5 e 7 5 5 7 7 7 7 7 7 5 5 5 7 5 5 5 5 5 5 5 4 2 7 5 5 5 5 q 5 4 5 5 7 7 7 7 5 7 7 7 q q 7 7 7 5 5 7 7 5 5 4 5 q 4 5 5 8 4 q 2 ",
"# 2 2 2 2 2 2 2 2 2 2 2 2 2 2 # 2 2 2 2 2 2 2 2 2 2 2 4 3 3 4 2 2 2 4 2 2 2 2 2 2 5 2 4 4 2 4 2 3 3 2 2 3 3 2 2 2 2 2 2 4 2 2 2 ",
"5 5 5 5 4 4 5 5 5 5 4 4 # 4 4 4 5 5 2 2 4 4 2 4 4 2 5 5 5 3 3 3 2 4 4 + 4 5 4 4 4 5 5 5 5 5 4 5 5 3 5 4 2 5 3 4 2 4 4 2 4 4 4 2 ",
"7 7 7 7 5 5 5 7 7 5 5 5 2 q 7 5 5 5 5 5 5 5 5 5 5 5 5 5 7 5 5 7 5 7 7 2 7 7 5 7 e 7 q q q 7 7 q 5 5 7 5 2 5 5 5 q q 4 q q 5 5 q ",
"7 7 7 5 7 5 5 5 5 5 5 5 # 5 5 5 5 5 5 5 5 5 5 5 5 5 5 5 7 5 5 5 5 5 5 2 5 7 7 5 5 7 5 7 7 7 7 7 5 5 5 2 2 5 5 5 q 4 4 q 5 4 5 4 ",
"7 7 7 5 7 5 5 5 5 4 5 5 # 4 5 5 5 5 5 5 5 5 5 5 5 5 5 5 5 5 5 5 5 5 3 2 5 7 7 5 5 7 7 7 7 7 5 5 5 7 7 5 2 4 3 5 5 5 5 5 5 5 5 5 ",
"7 h 7 7 7 5 5 7 7 q 5 7 # 5 7 q 7 7 7 5 5 7 7 5 5 5 5 5 7 7 7 7 7 5 5 2 7 7 7 7 5 7 e e e 7 7 5 7 7 7 7 2 5 5 5 7 7 5 5 5 5 5 5 ",
"+ + # O O O O + + + O O O + + + 2 O O O O O O O 2 O O + + + + 2 2 + 2 O + 2 2 + # 2 2 2 2 2 2 + 2 2 2 + O 2 O 2 2 + 2 + + + + + ",
"                                                                                      . . .                                     "
};
