/* XPM */
static char *_1695652228[] = {
/* columns rows colors chars-per-pixel */
"64 64 57 1 ",
"  c #6D6D6D",
". c #706E6F",
"X c #6F746E",
"o c #7D7761",
"O c #72736F",
"+ c #7B756E",
"@ c #757574",
"# c #7A7573",
"$ c #767B72",
"% c #7A7A76",
"& c #76747A",
"* c #7A767C",
"= c #7C7C7C",
"- c #817B65",
"; c #837D6A",
": c #847D77",
"> c #817E7C",
", c #7B8177",
"< c #7E817B",
"1 c #898265",
"2 c #8B856D",
"3 c #8D886B",
"4 c #938C6F",
"5 c #858172",
"6 c #8A8570",
"7 c #81817E",
"8 c #8A867B",
"9 c #8E8C7D",
"0 c #938C71",
"q c #918C7C",
"w c #95907C",
"e c #9C977A",
"r c #7E7D81",
"t c #837F82",
"y c #7F8084",
"u c #838383",
"i c #888481",
"p c #868985",
"a c #898986",
"s c #868689",
"d c #89878A",
"f c #8B8B8A",
"g c #918C83",
"h c #948F89",
"j c #969482",
"k c #90908E",
"l c #97998C",
"z c #939392",
"x c #9A9697",
"c c #999995",
"v c #9B9798",
"b c #9A9A9A",
"n c #A19B83",
"m c #AAA48E",
"M c #AAA695",
"N c #ABA99C",
"B c #ACACA2",
/* pixels */
"@@..=%%@ . ds%=&u=us7==u%@%.@@@.@%%===>sry7u====u*%=yy,$$$X%=@yr",
"=%%y=uy=. @zd%y%u=usu<=7r@=%==%&uu<uu777uusaasuuu>usdd<,,$@<*&u=",
"u%=u=uu%@ =cf=y=y=usuruy=@=@%=&@<u=u7u7uu<ussu=yu==sttr&*&&y*%u=",
"u==uysy&@ dkpy<===usutuuu%yru==%%=%%=%7fuu77u7uu77r<ttrr&@&y=%u%",
"dry<ffr%@@fsuy====ruu==turfspuru=7==%%7fdpsuuuuuuuu=st>*##=7=%7$",
"f=u=zf=%@ufuus<u==uuu=y7u=fps=<u77777uufsfssuuuuuu7=i7#;++#,<=5%",
"f*yuff%=uyff7us===<u7==uu=fdfssafi77upifffkfsuuuuf75gq6;o-5575%<",
"k%yksf==f=uf=us==%usuuuus=fdfffkffauu7ikfffpuuusuu%:qq04133698$,",
"du=zsk%fs%ff%uu=*@ypuys=%yzffdfdfu7fa=7kaafuy=<==u%%qq304eneglh$",
"p<&fukuzu=zz==uy*%yp=ua==yfdffduip7777=7uustsuuy=u%:85;6mmMMNBc,",
"u=.yusspu=zz=%==@%yp<spuy<zzzzzzkzffffu%t<uudpfuuu>=i:#:gghfu87O",
"su=ufususufzu7sr%=uyrus==yzzczxxzclkzfu=yuasfdffuuttat**xxxf=$$%",
"uu=sfusuy==u=%==&yuuyuy=<%uuuuuu7uuup7=<=%==yyy=%%%rdy=&&*r===>7",
"&%%=t<uuufassusdfzccbbczzy=@=%@@@%@@%#%7%  .==*.O@&=yyrysrusaas>",
"===%=usaufafpupfdkzzcxxcbu=%r==%%%@@%@@%=...uu=@..@<<<<pruafusff",
"r===%u=sufsffssspfdddssff=r=r=r<%=%%%%@O@ @@<%%@#@@=p7<<%,uausau",
"=r===uuuupfuaafuaaapaffsfy7yu===%%%&=&@=.@@@=@%==O@=777778uauuft",
"y=r==uuuuusu7ssuussuafasf=<ts=r=*=*===%==@@.@@us=@=77u77<pip7afu",
"7r====r7usus=suspsasfkffd=<yuu=%=====%=ru=@ @=ss7=u77u777puaipfp",
"u<===uruusuu=uuspassfffffuy=7=y%=*%=r=%=u=. %suu7ufu7uuuuupppafp",
"st==7uuusu7=utuuuuuusspsdyy===<&=%==u=%ry<  sfuu7ifuuu777aupiaau",
"u<==uuuus<u=u=uuuuuuussuy<<%r%y=&%&=uu==yu.@sf=u7uh7p77uif7uaaai",
"u===<uuus77uuuusuuuusauus%*%=%<*&@&,u7==uy%ruu=<<7fua77u7fpifasu",
"u==rrrtusu=s=y<pruu77uuuf%&@r%=*%%&=uuy<y%=d%ru==7f7f7>u>a7ufapa",
"fyyu=ufuuussu==7u=suy<=uu%%=*r=*%&&==y=uu=fk==pt=afau7%=>u77i7pu",
"=%=s=<s==uuuy=yyu=u=ysuyu@@..%%%==%==u%=u=su==u=%7%%uu<,=u7=7%=%",
"%@7f=uu7ur%fksfsfffkzbzkf<=@@%u=puuddkuduu==<>y77>%=affhafsup=7=",
"=%ufusuudt%ff*%%&uffkzffuyy@@%=uyy<pfzspsususssuuu77fffzfhf7i=77",
"=&<fususy7yfu@@@@@dkkfpdr=u@@%y====rpksyaudfpafuuu7ifipfkfkua77u",
"%@suuduu<uuuffu@.@=dzkspsu=@@uu=uy=rukuususpusfsau7ukkuikfk7uppf",
"&%fydfsuduu=sf= %@=ukzduu==@@rr==y=%rkuuuuuuuusu7>$=fkp7aaf=77uf",
"%&k=pssps=fu7u@%=&%=skdyu=s=@%=u==%@=fuu=s==fa7u7=%=fkffgfk=7aif",
"&%su7ssauspyf= @@r=usuf=uuu=%@y==<%@rufusu==ssr%=%==kkf7ffau7uff",
"@%uuuausupsuf=@ @%usffsuyudr&@====t@%ruuuuusuuuu=#%=kkffipp7up87",
"@ys=ufspspudfr=@%%saapuuupku=%==uya.@ursuuuu7===%#@%fkiaff7uuapu",
"@7<=sfsuuu=dp=y%=rsfuur<usfu=@==t=uX&u<uu<==uus<y<@%ulafip77uas7",
"@7u=sfuusu=hs%=%=ffkd<dyuuffu%%r<s=%=usuuuuusffapfu=7zffaau7pfpi",
"@yuussu7uurky@@.=fssu=d<u=ffsr%r%s==%=y=sssu7usssa7@=auiuu777ppu",
"*<%=<=r%r==y%@@@@=@%&@=%=&d<uu=%===y==@%%==u7uuu7>%O%==u77==>u7>",
"pdruuud=uut<=asf=&*%*===u=f%ufsususfdk%=====usu=7==O=%%ffaaffzkh",
"utuusfduu=uu=sfu%=%&<<&=<=s@%uspfuuuxk=r=<=usp7=u=%O%%=f7pfa8cza",
"fsu<t===u=y<%us=*%@@==%=y%s@uspfff=ucf@u=y=rssu=uy=O%%=i7affucku",
"fpssuuufuuusruu=%%@@==r=y=d=dfffuz&yzu@u=r%=suu=77t@%%%u7uffuzka",
"fsuapuyuu7uutus=*&@&=r<y<=d=dfky%f==sf=7y=%rsu<r7u<@%%%7>ufficza",
"fsfffsuuu=uu<udr%@@%==y==rd%uff=@rprafuu7=%=uu==77u@==%%uaffpzkf",
"ffffzfpssusuyudu*@@&%r<==ud%ufzu%@yufs=us=&=usu<7u7#77=%uikfuklf",
"kffasu==u=u==yu<=@@%%yu==yd%uuks=@.rks=uu=%=suuy7>7$uu=%7uaa<kkh",
"ussuuuuu7=r<=uur=@@&%ru=%=u%y=as== =kfyuu%@=usuu7==@pu%=77as=kff",
"%=rupsafsruu=us%%@@%%uu=%<=%uu=fr@ Xkz=uu&=%s<uuuu==pu=%rrdpuskf",
"uuuuuspafsuu=rsr#@O%%=7===%&=y=u=%  dcy<r%==suss7=r%su==uuuurfzf",
"===usapd7=t<==u=@@%%%====%%@@=%==@. =ky=%%@==7====%@y===suu=ufff",
"&%&%=sffffffu7u==%%==777u&&@@=rru=y=yudksu<usuu===&@=%&%@@@ &%@@",
"%@@.@rufffffsu>=u>>uafaif=====uufupfdufbzffdksdsfs=%y%%=%=%&%%@@",
"@..@*<uu====y<uuu7=7aauak=%u===usyffdskczsfukspussy&u=====*%&%%&",
"X.@%ypu<s===u==u77=7as>if=r<=*%ususffdzbkpddffau77%@u===y%%*@@=&",
"=@@&udsyu==ruuru7u77fu>ps=y====ruu7ssukbfdpfkfasuu=%uuury&=r%==@",
"=y=%=ysussuuuuuuu77pppaaf%u===u=<susu%fBkfssaarsurr=yuyy<====<%*",
"=yu=@@rdsu%%=ruuu77apiaaf=u=*%u==sufu=dzffsufausuuu%u<y<r%=%=y==",
"%@@@.  @<uussuuu77paiupafuu=%=7u=suuyykbfausfd<uuuu%<=y=%*=@%==y",
"@.X.@@   @=ffusuu7sauspafysy=ruuusu7<rkxfspuffuuurr%u====%=&%y<y",
"  .@&%=%&%@=uss=u7uaaaaasru=<ruruasuuuusasasafuuuu=@r%===*%@=uyy",
"@@@.@=uufsu=uus<uuuipaauf<u%u==uuuu=ru<sapfussyuur=@<%*=r%=@=uu=",
"y=@@=uur@uuuu7as>>upuupusru%t=<us7u=usufssfuuu=uu=%@=@%==%%@%u==",
"u*@%==%=%u7ruuy%%=>7>777uusrsuuususspfussspuuu=usr%@&@*==*=@&y=%"
};
