/* XPM */
static char *result[] = {
/* columns rows colors chars-per-pixel */
"64 64 89 1 ",
"  c #230C06",
". c #250E08",
"X c #280E08",
"o c #2A2B1E",
"O c #2E3224",
"+ c #2F3D29",
"@ c #313526",
"# c #313728",
"$ c #333C2C",
"% c #353F30",
"& c #34402F",
"* c #364231",
"= c #394534",
"- c #3C4A36",
"; c #3A4739",
": c #3E4C39",
"> c #404E3B",
", c #42503D",
"< c #3F4E40",
"1 c #3F5740",
"2 c #404E40",
"3 c #445344",
"4 c #485747",
"5 c #435A47",
"6 c #465748",
"7 c #465B4A",
"8 c #4A5C4D",
"9 c #4C5F50",
"0 c #47604D",
"q c #4C614F",
"w c #50634F",
"e c #4E6352",
"r c #516554",
"t c #526956",
"y c #516758",
"u c #5A675A",
"i c #556C5A",
"p c #586F5D",
"a c #57705E",
"s c #59705E",
"d c #616E5F",
"f c #576F60",
"g c #596F60",
"h c #577160",
"j c #5B7362",
"k c #5D7967",
"l c #5F7768",
"z c #5E7A69",
"x c #637465",
"c c #657668",
"v c #6A766A",
"b c #627C6B",
"n c #6B796C",
"m c #63816F",
"M c #6F8371",
"N c #748476",
"B c #778979",
"V c #7C8C7F",
"C c #868E85",
"Z c #829485",
"A c #8D968D",
"S c #8B9A8E",
"D c #8D9C90",
"F c #969C94",
"G c #93A194",
"H c #96A399",
"J c #99A59C",
"K c #9CA89F",
"L c #A1ACA3",
"P c #A5B0A7",
"I c #AAB5AD",
"U c #B0B6B0",
"Y c #B4BCB5",
"T c #B6BFB8",
"R c #BDC4BE",
"E c #C4C9C5",
"W c #C7CEC9",
"Q c #C9CFC9",
"! c #CCD3CD",
"~ c #CFD5D1",
"^ c #D8DCD9",
"/ c #E0E3E1",
"( c #E6E9E7",
") c #E7EAE8",
"_ c #EBEEEC",
"` c #EEF1EF",
"' c #F5F5F5",
"] c #F7F8F7",
"[ c #FCFCFC",
/* pixels */
"z8zzklhjjffiifiyittteyet55terrrrrrrrrrrrreetteeertterrrrrreeey3e",
"k9bzkhjjjhfiyypyiiteetyt55eet9r9r9rrerreeqetteqrretrrr8r9reree60",
"lezkjhlhhhfiyiiyiyeettyt66yerrrrr9rtetee9ettteeqeeeerw9rrrwter68",
"zemzbzzzljjfffpppiiitttt87yyrurrtrruytttrrtyttretttituttrututi4e",
"<<878766663632633123<<13;;3:<2>>222>,<<<1<<<<<<11<<<<<>2:22>>2;<",
"iffifyyyyy9e73eeee999780987888888868<3978799888879:3888869688698",
"bmbzlljjjjjje9ffpiyyyyttyttetrtttrrt38ireetyeteeti37trrtytrtttty",
"zzzlhhhjffff96gyyttyeeeteeeer99rr98t15teeererr0eet16r99rwrer9eee",
"zzzjljjjjfff98fiiyyeeyterrrwrwrrr9wu28teeerttreeet66rw9rrrrr99rr",
"zzzkjjjhfjff89fiiyteyyeer99rwwrr9wwr26t98reeee8eee66u99wrr9rrrrr",
"mbzzljjgjggf99fipiyteyttrr9rrrr9rr9t28ttrrtttrtert44t9wwwwrr9rry",
"zbzkzjgfjfff99iyiyiyeyetrrr9rw9wr9wr>7rerererreter44rwrr9rrw9rrr",
"mmzzlljjllggr9fffiyiiyiyyurrwur9rurr2wttttttttetet84trrrr9rrurrt",
"y9ye98998898266889776666334233663326;24433676633666>363344462626",
"f9jfffffyyyey99yyeee9e9e>4989899878wr99888ee988q888988w888888962",
"hybjjgfjgggyfyffpyetttrp28rrrrwrww9rrrr9ertetrerrrrrr8w9rrrrrr44",
"hyzjjfffffpyyiyiiitettet28w9rr9r99ww9wrw8rtetrre8r9rr9899w9rw944",
"fybljfjjjfpiyfiiiytrttty6wrr9wwr99rwrrrrrttitrtetrrrrwwr9wrrrr44",
"feljkjpffpipfiiiytitettt29r8rrw9rw9rrr9uteetreetrwrr9rrwr9rw9r83",
"hyzjkjjjjpppfiiipyyitttt2wtrrrww9urwrrrrtttytttt9wuwwrrwrrrrru43",
"frbkjjppjpfiiytyiiyyettt3qrr9rrrr999rrrrertttyyertrrw9wrrrrr9r84",
"p8kpipppppiiityrtteyttet38r8r9rrwwwrrrr9reetyeeqwrrr9999r9999r4>",
"8498677743662266632221:1;;;;>22:;:;2;;;;;:;:<:::;>;%32222222222;",
"jjjfpppipiyi4ritteeefccvbcxvv9tnxxv82re99eeteee09w9>wr99wrr9r99r",
"ljxkjsjssapa8rpiyii0S['[WP['(pwT[`'L:trtetttttterrr3rtrtrrtttttt",
"kjjjjssaapia89iitya0D['[~0P[)p88T[[[K7rteeyttyeetrq3weeewrteeett",
"kjxjssssssia8tipitiqG[][!t0I'iee9Y[][L8ttttittttrrr2rrttrrrytttt",
"sxjjsssissia7etipii0S['[~ereKkeyt7T['[L8teettt0tttt3eeetrryeeett",
"jssssaipiiii4witiiiriQ[]]D7yetett08R[][L7ttttererer3eeeeeetetttr",
"kxjjjipsspia7riipititi![][D0atyeett7U[[[L8tiytterrt,rteetttiytii",
"iaiitettutww,8rrwqq0r0rE[[[S1e777686=U['[L49t8e8800:4877700ee80e",
"04rw88q8q888666644434,33R[][C:78889987R[][H68766466636333663333:",
"stmssapappppittiitiwZB0qx]]['tV`______)]]['jiitttrttytttrrttttt:",
"ptsssaiaaptiittitwt0G`M:n'][)tV[[[[[[][]]]_dtrtttrtteeteertette1",
"pwxsapiippiitttiiti0S[_vd]][_wV]]]][[[[[[[]sttttttttetwrtertete3",
"arsaiiiaitittretttt5S[[/A']]_tV]][(JKKHKJKHatrrrrttrteerttrree01",
"pwjaitiiiitteyttwwtwsBBBvNNBB0V]][^85770500ttttrtetttrtrrerrteq3",
"iqsittiitttretttttwwt007>44q00V]'[^itytrtirttttw0trretqqrrtereq3",
"srjsaipaaiityittitttiiit4iitdwZ][[)itititiitiiitittttttrttttttr3",
"438443364336:3343345333:-433,,uGFFZ3333535435545553553333363334;",
",,,>>>>>>---*------>==>=--=&>>&+&$&&---->-:--------*------------",
",4,4,>>>,,,,*->>>>::->>>>-->->>>:::--:---:,,,,,-::>--:-::-,:--::",
",,,,>>>->,>-&->--::-->->->--->----:--:::-:,,:::::-,------>:-----",
",,,,>->>->>-&-->>----->---->>-----:=-:-::->:>>>--::------:::---:",
",>,>>->-->--&>------>---=-->&>>&--:--::-::->:->--->=-:-----::---",
",,,>>>>>>>->&>-->>----->>--->>>>:-:--:::,:>:,::>:>:--,--:::::---",
",,>>,,>->=>>*-->->>-->>->-->>>&>:::=--::-,:,>>::,::----,:-::--:-",
"->>----->>=-&=->----==----=&>=>>:------:--::::--:--=------:-----",
"=====$%%===$$$==-=&=&&&&&*&*$&>@=***===*===----*====**&*==%=$$=$",
"-->>:::>>:>-:::>::-::---&--->>>>--:::::-->>,::::::::::-:-->>>->%",
"==>---------=-----------*--->&>&---::----::>::-----:------>----$",
"-->--::----==-=--&------*---&>>>=-:--:---::::::---:----------=-=",
":-::>::----->>=>------:=*-=->=>&-:-:-:>--:::::---:-:---->>=>-=>*",
"-=:-::-:>-->---=------:&*>>->->>------:::::::-::::--:---&*>>->>$",
"=-::::::>-->>=->----=-:=*->==>>&---:-:::::>::,::::-:---->>>=---*",
"-->:---:-->-----------:**--->==>---:-,----:,,:----::-:=->>=>-=-*",
"&&*&&&&&=&&*$*%$&&&&&&&&$&&*&&&&$&*&&***&-&*===&*&&&&&&&@#&**&*#",
";---==---=-*$=-=-=&&==**===-=--**=-#-**=------=-==-&#--*#>*&>&==",
"::::--::----$:--:----------->-----:$::-->:,>-,:,--:-$:-->>>>--->",
":::---------$----------------------&-::-::-::--:-:--&--->**>---=",
":::::----=--$----:-----------------&-::--->-::---::-+-----------",
":1:::---:>--$--,:-::--:--:--,--:---&::::::,,,,>::::-&---:::-----",
"@@#OOOO@@@@Oo@@###OO+OO##O+O#####+#O+&&++$#&&#+##+&+O+@@+#+@+O@@",
"             . .             X    X     XXXXXXXX .. ......      "
};
