/* XPM */
static char *_1695652228[] = {
/* columns rows colors chars-per-pixel */
"64 64 53 1 ",
"  c #666257",
". c #63625C",
"X c #6A665D",
"o c #6C6A5D",
"O c #73705F",
"+ c #656463",
"@ c #696663",
"# c #676863",
"$ c #6C6A65",
"% c #666668",
"& c #6A6769",
"* c #6D6C6B",
"= c #716D64",
"- c #706E6E",
"; c #757262",
": c #787563",
"> c #7C7966",
", c #72716E",
"< c #7B776B",
"1 c #7D7A6D",
"2 c #716F70",
"3 c #757373",
"4 c #787676",
"5 c #7A7976",
"6 c #76757A",
"7 c #797778",
"8 c #7D7B7B",
"9 c #817E6F",
"0 c #807E71",
"q c #807E7E",
"w c #83806F",
"e c #858175",
"r c #82807E",
"t c #89857A",
"y c #8F8C7D",
"u c #908D7C",
"i c #7F7D80",
"p c #817F80",
"a c #848383",
"s c #888686",
"d c #898886",
"f c #898788",
"g c #8C8A8B",
"h c #908E8E",
"j c #93918E",
"k c #99968B",
"l c #918F90",
"z c #949292",
"x c #989795",
"c c #9C9995",
"v c #9F9E9C",
"b c #A09D8E",
"n c #A09C90",
/* pixels */
"arr85r5r8dhld4466qqq36q2qqppppppppp0q2q7353#,553q6662%**67***%%%",
"s8a8585r8rghd6362qq63-3-qqqqppppppqq0-72,33,,r55866,%#*&**$-*..%",
"d5rr8r558rhhd33,3q60-&--2q6qppzplpppq233,,,,5835885*#$##X=*3,%.%",
"d5rr8rr5rrdhf3363q662&-6qq6ppzppppppq203,53,55*388q,##o. @$=,%..",
"d5rqqqa5qafgf3657q363*362pppplpxhrqa744-,53,53#,855*oOooooo;,#..",
"dra8q5a8aafgs358066q3*23pppppppzdrqa440,,33,83,38,5*#;;;O;;91..*",
"rra8q5r0rafgs2782q662&22qpppppzxdrqt35q2,,5,55*,835;o<;>:>9e5o.$",
"58d0r5q5rrfgs368*7q72*26&ppppllpdaqs,4q-,,555,,$850,O1;;wyutt5,#",
"0qr885r58rafa885237322326pispsggdaa545q,,3,5,,*,qqq&==X9kbbkknp*",
"4qdrr50r8rsfs773*673*2226pisppfgdta845q,33355,*,qqq&== =1ett4,@@",
"3qarr55r85asf33**373**237ppfipfgsrsr45r3,3135,,*0pq&=&XXjnkj3*.&",
",qsra55553rsg26*-772**227appipfgddd84403358,,,,,qpq0&=-@=535--&&",
",qrqaq44528pf36*2772*-227aaa8pffddj85,q,35r15,,,pq&&**-@$,**5&@.",
",8r8rq55826ps7727772*2227afpipfsddd5,,5,58855334qqq2*2&@-,*3s=**",
",5rrar855,28pp826783**22qfppipffdddr3,q,45588r55qpq&26*&27*3a$+#",
",5arrqq55-*8ppp236i2&*227fpp7fggddd5,35544,88r43qpp&26&*&6*,q,$+",
",50darr35,,8rdi38553**,$3pp8palfpppqq2p22p&ippii6qq-22&&&&&&22&@",
",5rrrrr5,*#6qi833543,3353ii7ppgsppp2&&q622iiii&&3qq**62&&*&*22&&",
"13rrrar58,%5ri8335,353,53788aphsxppq22q&2pppi2iippp-*22*&&&*22&&",
"55rrrarr85%6a88655,353*577iiaagsppp2q2p2262pppppppp2*22*&&&&22&&",
"r8arrrrr55%3ar5555,385,568p8ppaqpppp22q22622pppppppp223-32*277*&",
"88at5555q535ar3333,,,$#,38a88888ppppq2p2pppppvpppppp36pp6q2272**",
"rraa5,55553*88*,33,$%###*8g86564q2q2qqpppppppppxppppq6pp702273*2",
"8rrd8,54535,8d35333**#**%5lp58432&qpqppppppppvpplplp3qpp37q63322",
"rrar5335533,3r558r,#*##,,6rri833&pp2ppp2iipppppppzzppppp7626q-2-",
"rrdt5335553,5831855,=,5,3idiia662222ppppipppppvpzppppppp3q-qq222",
"8agd85334,3,53**rr8,33586adiia83q22pp22pppxpppxxpzpppqpp663q0626",
"irga55,*,,555,#,rvx,*5533rfria88222ppppppppppxppzpppp2pp2q3q2222",
"iqfa63,*,38rr5,555rd55rr8daaai88q2&6pppppipppxzzplppp2pp226q2*6-",
"qiaa63--,3rr85,0r,,dr,5rlgaffi8i&2qpppppppppppppzpppp2pp22q66*q2",
"aiaa84-,,48885,5385,8rdazhaagii8p2p2pppppppppxxppxzpp2pp02qq3&6-",
"r8aa86,3558rer5585rdrrhdghaggiiiqq2ppppppppxpppzppppp2pp2qqp--6*",
"srss556,38r8rddr55rajdrdjxrdrr882p2ppppqpppppppvppvpppppiiip%ii&",
"r66r665,,8rrddjd55rajzd,rr5rdrrrq6q2ppqpppppvppvpppppppp&iii&&i&",
"r6rr55663rrrrdddr565rjddrd8rjrr822qqppppppppppppppppppppi&i&&i&&",
"r66r85565rr55rrdd55r,radjdrdjdr5qqqpppppppppvppppppvppppiiii&&ip",
"6,5rr868rr555558,5rr#rrajdrdjdr8ppppppppppppvpppvpvpppppp22pip22",
"66658888585555355555,55ara5djjr8ppppppcpppppvppppppppvppp2p&&2p2",
"6rr6r85555855853r5rrr,#355raddr5pppppppppppppvpvpppvpppp2p22p2&2",
",6rr5r56,r5555555555r555,5rrjdr8ppppppppppppvpppvpppvvppp&p&p&q2",
"**6r36r8,55556,5,35r855r858dddr5pppppppppppppvpppppvpppp2pp&p222",
",36886865,5rrr5,3,,5555rr5rdxd88pvpppppvpppppppppppppppp2&2pp&2&",
"688ia8365,55rr5,55355585r55rdrrrpvppppvppppppppppppppppppppppppp",
"q8rdsr5q5555,,,58855rrr5,r55rrrrppppppppppppppvvpvppvpvppppppppp",
"s8ahdaaa58rr5,#,,555rrr3558,555rppppvpppppii2pppvvpppvpvvppppppp",
"gafzsaai55rr85,,,585rr5,55rrrrrdpppvpppppi2ipppppppvvppppvpvpppp",
"sashsiii5555r555355rr85,555adrddpvpppppppiipppppppppvpppppppvppp",
"6iaasaiadrddrr3,5,58rr5,,5rrrrrdpvpvppppi&i&ipppvvppppvpppvppppp",
"ii88iaiaaip8pp2*,588ar533,55rddrqzdjrrdr8*38ipg8pppvgzpii2gzpipl",
"i868aasgaqp6ip2-,5rraa0,,555rrrrrxdjrrrra,48ialspppppppiiiglppil",
"sa88iaagi8836p83,8rrar5,,585rarrrchjrrr8a546iagsppppiii&2pgppiip",
"lsi8aiagii834q665raaar5,*5r5rddrrcjhdr88r546paiappvpii%iiipipiip",
"sa88aaagsa6346,,5rrrrr,,#r85ddrdqxjdat88r538aaiapvppii%&qqpqi62p",
"ii68iiqfap36833*,5rrr5,,*585rdrrqjxdddrrr4,6aaiapppiiiiiq6qq2238",
"iqi88i8q8823833*,65rr5,,,3588rr88gzdaar583,58qiapppp%ii%7qp6222i",
"irr88qi83833836*#,5rr5,,,3358rrr5azdraq5556p8iiapppp%ii%3qp6232p",
"ppp68qpa7672q77-,,5888,##55,58rr88jrdaar8r5iqr6sa8p573p36q6qq22q",
"pppq6qqp76p7q622,,,5855#,,5588888rbddaar8r55rriaaia333p72323q723",
"ppq7q76p37q78622*3538r5*,555853888xddddar863aaaaaip362p6223qpq23",
"7q7qq78p3222qp32,555rr5##55r883888jaaddaii5,8aaaai87q7626qppp63q",
"qpqqpq8p72-2qp32,555rd8,,5588850r8ddadtr888*6issa8iqp222ppplpppp",
"ppqppppp72-27722,5508r8,#533553808jdrarrrr8,68aaaaiai26plhlpphgh",
"ppqpappa632777275,5r8rr##333855585dd8arrrr5638irrsa872ppplhhphhp",
"q6qpapqp77277p77838r58r,#,3,85855,8rrarrdrii3i8iadi6pppppppplhhp"
};
