/* XPM */
static char *result[] = {
/* columns rows colors chars-per-pixel */
"64 64 170 2 ",
"   c #230C06",
".  c #280E08",
"X  c #2A2B1E",
"o  c #2E3224",
"O  c #313526",
"+  c #313728",
"@  c #333C2C",
"#  c #7C2F1A",
"$  c #6A311E",
"%  c #75361D",
"&  c #77381E",
"*  c #633221",
"=  c #6D3623",
"-  c #643927",
";  c #6C3D24",
":  c #633C2B",
">  c #773922",
",  c #7E3B23",
"<  c #7B3F29",
"1  c #34402F",
"2  c #364231",
"3  c #394534",
"4  c #3C4A36",
"5  c #3B4739",
"6  c #374B38",
"7  c #3E4C39",
"8  c #4C442E",
"9  c #52452D",
"0  c #59432B",
"q  c #424733",
"w  c #4B4531",
"e  c #424A35",
"r  c #4C4933",
"t  c #424639",
"y  c #4D4738",
"u  c #404E3B",
"i  c #4A4B3B",
"p  c #574433",
"a  c #5D4532",
"s  c #514838",
"d  c #5C4B39",
"f  c #42503D",
"g  c #58503F",
"h  c #694227",
"j  c #63432E",
"k  c #6A422D",
"l  c #714223",
"z  c #72462E",
"x  c #7C432A",
"c  c #7D4C2F",
"v  c #644633",
"b  c #6A4730",
"n  c #664A35",
"m  c #6C4C35",
"M  c #774F37",
"N  c #7C4C32",
"B  c #63513C",
"V  c #6D513B",
"C  c #72523A",
"Z  c #7D533A",
"A  c #3F4E40",
"S  c #3C5144",
"D  c #3A594B",
"F  c #404E40",
"G  c #445344",
"H  c #4C5645",
"J  c #465748",
"K  c #495748",
"L  c #47594A",
"P  c #4A5C4D",
"I  c #555342",
"U  c #5B5442",
"Y  c #5A5B47",
"T  c #545C4A",
"R  c #595E4B",
"E  c #4C5F50",
"W  c #615441",
"Q  c #6F5741",
"!  c #645B45",
"~  c #625D49",
"^  c #4C604F",
"/  c #52624F",
"(  c #59614E",
")  c #446556",
"_  c #4E6352",
"`  c #4E6956",
"'  c #4D6B5A",
"]  c #516554",
"[  c #5B6551",
"{  c #526956",
"}  c #516758",
"|  c #556C5A",
" . c #586F5E",
".. c #57705E",
"X. c #59705E",
"o. c #576F60",
"O. c #596F60",
"+. c #577160",
"@. c #5B7362",
"#. c #5D7967",
"$. c #5F7768",
"%. c #5E7A69",
"&. c #617C6B",
"*. c #9C2E07",
"=. c #9D2B0C",
"-. c #9A320E",
";. c #872C15",
":. c #812E18",
">. c #932E12",
",. c #873B1F",
"<. c #8D3A1A",
"1. c #973411",
"2. c #9A3413",
"3. c #913A17",
"4. c #983A17",
"5. c #923B1A",
"6. c #9D3D1D",
"7. c #A52D06",
"8. c #AA2D05",
"9. c #A42F0F",
"0. c #B52E02",
"q. c #AC3005",
"w. c #A2330C",
"e. c #AC340C",
"r. c #A7380D",
"t. c #A9380B",
"y. c #B53707",
"u. c #BB3304",
"i. c #B43807",
"p. c #BC350B",
"a. c #A13513",
"s. c #AB3412",
"d. c #AC3A14",
"f. c #AE3E1A",
"g. c #B63510",
"h. c #953D20",
"j. c #C33402",
"k. c #CD3402",
"l. c #CA3800",
"z. c #C0320C",
"x. c #CA3708",
"c. c #C43A08",
"v. c #D63B07",
"b. c #DB3D05",
"n. c #D33D0B",
"m. c #D83808",
"M. c #C43611",
"N. c #C03A12",
"B. c #CE3A11",
"V. c #E43D03",
"C. c #EB3E01",
"Z. c #94401C",
"A. c #A14016",
"S. c #A84117",
"D. c #A5431D",
"F. c #A94218",
"G. c #B84419",
"H. c #824325",
"J. c #824629",
"K. c #8D4728",
"L. c #81492C",
"P. c #88492E",
"I. c #9A4423",
"U. c #954B2C",
"Y. c #8F5032",
"T. c #A34322",
"R. c #A54826",
"E. c #D3420B",
"W. c #C54114",
"Q. c #63816F",
/* pixels */
"%.P &.%.#.@.+.@.@.o.o.| | | | | ` { ] { _ ` ` ` K G ` _ _ _ ] ] E ] ] ] ] { ] ] ] _ _ { { _ ` / ] { ` ] ] ] ] ] ] ] _ _ _ _ J _ ",
"#.E %.#.#.@.@.@.@.o.o.| } | | } | | { _ _ | _ { L J _ _ ] ] ] ] ] ] ] ] _ _ _ ] ^ ^ ] { _ ` ^ ^ ] _ ` _ ] ] _ ] E ] ] ] _ } G ^ ",
"$._ %.%.@.+.@.@.@.o.o.| } | | } | | _ _ _ ` _ { L G ] _ } ] ] ] E T ] ] _ _ _ ] ^ ] ] ] ` ] / ^ _ _ ] _ ] _ T ] ] ] / { _ ] J P ",
"%._ Q.%.&.&.&.%.#.@.O.+.O.O.O.O...| | | | | { | P K | | [ } ] ] } } ] | | { { { ] ] { { { } ] ] | { { | | ] ] } ] } } [ ] | J _ ",
"F A E L E L J J J G G J F F J J G S G G A A S G 5 5 G 7 A F u F F F A 7 S A A A S 7 G S A S 7 S 7 S S u F A G u 7 F F u A F 5 7 ",
"| o.o.' } } } } } } E _ L J _ E _ ^ P ^ P P P ^ P P P P P P P K K P P P u G _ K P ^ P _ P P ^ L P ^ 7 f P P P P P P P P P P P E ",
"&.Q.&.&.$.$.@.@.@.$.@.@._ P o.o.| | | { ] ] | ` | ` ` _ ] ] ] ] { ] ] ] G P | _ _ _ ] { { ] _ _ ` | J J ] ] ] ] } ] ] } _ _ } | ",
"%.%.%.#.@.@.o.+.o.o.o.O.E L O.} | | _ | _ _ _ _ _ _ _ _ ] E ] ] ] ] _ { f L ` _ ^ _ ] _ ] ] _ ^ ^ { G J ] ] ^ ] E ] _ ] _ _ _ _ ",
"%.%.%.#.$.@.@.@.@.o.o.o.E P o.| | } } _ _ } ] ] ] T ] E ] _ ] ] ] ] ] ] F L } _ _ _ _ _ ] ] _ _ _ ] J J ] ^ P ] ] ] ] ] E / ] ] ",
"%.%.%.#.@.@.@.o.@.O.O.| E E o.| | } } _ } } _ ] ] ] E ] ] T ] _ P P E ] 7 P _ ] _ _ ] ` ` ] ^ _ _ ` J G { / ^ ] ] ] / ] ] E E ] ",
"&.&.%.%.$.@.@.@.@.o.o.o.E E | | | | | _ _ | _ | ] ] E ] ] ] / ] ] ] ] ] G P { ] ] ] ] { ] ] ] ] ] { K K } / / ] / ] ] ] ] ] } } ",
"&.&.#.#.%.@.O.o.O.@.o.o.E P | | | } | } _ ` _ ` _ ] ] ] P ] ] P ] ] T ] 7 P ] _ ] ] ] _ ] ] _ _ _ ] K G ] / ] ] E ] E ] T ] ] ] ",
"&.&.&.%.@.$.$.O.$.$.O.O.} E o.O.o.| |  .{ | | { | ] { ] ] ] ] ] ] } ] } u E { ] ] { ] | | ] ` { ` | P H ] ] ] ] ] ] } ] ] ] ] | ",
"' E } ) E P E P P P E E F J J P P P J J G G J J G G G G G K G K G G G G 7 G K G G G G K L G G G G K G 7 G G G G G K G G G G G G ",
"o.E $.o.o.o.o.o.} } } E } E E } } _ _ _ _ _ E ] A J _ P P P P P K P P P E E E P ^ P _ _ _ _ P P P P _ _ P P P K P P P P K _ G G ",
"@.E &.$.@.@.o.@.O.O.O.} o.} o.o. .| ` _ | ] ] | G K ] ] ] ] ] ] ] / ] / ] ] ] ] _ _ ] ` _ { _ _ _ ] _ _ ] ] / ] ] } ] ] _ ] J J ",
"@.E &.O. . .O.O.+.+.O.| } | } o.| } ] ] { { ] { G P ] / ^ ] ^ ] ^ K E _ _ ] ] T _ ] ] _ ] ] ] ^ _ ] T _ ] / P P ] P _ ] ] P K G ",
"@.} &.&.@.O.+.@.+.O. .| o.| } | | } | ] { { ] { G P ] ] T ] ] ] ] ] ] ] ] ] ] ] ] ] { { { } ] ] ] ] ] ] P ] ] ] / ] T ] ] ] P G ",
"O.] $.@.&. .+.O.O. .|  .| | | | } } | } _ { ] { G P ] / _ ] H K I H P ] ] ] E } ] _ _ | { ] _ { ] E ] ] E ] ] _ P ] ] ] / } P G ",
"o.} &.+.X.&.@.@.O. . . .O.| | | | | } { { ` { | f / } P I : * - - = v U E ] ] ] { { ] | { ] { ] ] ] ] ] ] ] ] T ] ] ] ] ] { K G ",
"+.] &.#.X.@. .X.+.@.O.| | | | | | | { ] { ] { { G L d > >.=.>.:.# ;.>.>., U } ] _ ] ] | | _ ] ] ] ] ] ] T ^ ] ] ] ] ] ] ^ ] P G ",
" .P @.X. . . . . .| | | | ] ] } | ] ] ] _ ` / { S a -.8.9.5.m I d k > >.9.-.z T _ ] _ ` ` ` ] ^ T ] ] ] _ P _ P ] E E E P ] K u ",
"P K E P L K K K L K G G A G G G G G G S G G G G p *.7.& p y A S S A t w $ =.7.> 5 5 7 7 7 7 7 4 5 5 5 5 G u F F F F F F F F A 7 ",
"+.#.@.+. .| .. .| | | | J _ | { { _ _ ^ ` ] _ _ <.8.b K P / E Y x 5.< L F n 2.8.k _ _ ] _ _ _ ^ ^ ] ^ F _ ] P _ E ] ] _ _ E _ _ ",
"&.&.&. .X.X.@.X.X. .| X.P ] ..| | | | ` { | ` B 8.x _ _ ] ] _ K.k.j.,.E L ] m q.w.Y | { | ` { _ ] [ ^ G ] { ] ] ] ] { { ] ] { ] ",
"@.@.&.X.@.X.X.X.X. .| X.K _ | | { { { ` { ` T 4.4.T ] ^ ` _ U s.x.L.P P F } ] L.0.x ^ | { _ _ ` { ] _ G / ^ _ ` ] ] ] ] _ ` { { ",
"@.&.X.X.X.@.X.X.X.X.| X.^ ] | | | { ] | { ` M 8.m ` { ] ] ` N c.N.W _ L G { _ R t.1.T | { ] { { ` ] ] G ] ] ] ] E ] ] { ` | { { ",
"@.@.X.&.X.X.|  .X.X.| X.L ^ | |  .{ | | ` _ x 2.( | ] ^ _ ] f.v.n.L.J J G ] } _ Z.-.T | { { _ _ ] { ] G ] _ ` ] } } ] ] _ ] { ] ",
"@.X.X.X.X.| | ..| | | | L ^ | | | | { { { / ,.1.T ` ` ] ` ! n.b.b.G.Y J G } ] _ J.w.U ' { ` _ _ _ ` ` f ^ ` ^ _ _ ` ` ` ] ` ] { ",
"@.@.@.@.@.X. .X.X. .| ..L ] |  .|  .| | ../ 4.2.( { ] | ' Y.V.E.b.V.U.) G { { _ c 0.V | { { ] _ _ { ] G ] ` ] ] ] ] { | | { { | ",
"[ X. .| { _ { { { [ ] _ f P ] _ / / ^ ^ _ ^ x a.T ^ L ^ _ G.C.D.D.V.E.B S ^ P P H.u.M _ ] ^ ^ ^ P ^ ^ 5 L ^ L P P ^ ^ ^ ^ ^ ^ _ ",
"T K ] _ P P P P ^ ^ P L J K G K J J G f L f % w.9 G G D g b.b.z g W.C.S.S J J G 3.y.n L K J L J J J K G G G G G G f G J G G G 7 ",
"../ Q.X.X....... .X.X.X.| | | | ` [ ..{ { { b q.n ' Z U.R.V.T.E ` C n.n.L.| } [ S.e.~ ..| { { { { { { | { ` ] | ] ] | { { { { f ",
"..[ @.X.X...| .. . .{ | | { ] | { ` [ { { ` Y e.,._ L.k.m.B.Q _ _ ` Z M.I.R ` C j.Z.` ] | ] ] | { / ] { _ ` ] _ ] ] { ` ` ] ` f ",
"| { #.X... .| | X.| | { { ] ] | { { ` ` / { { L.u.C _ ! U.I.P P ^ P / U.P./ R d.u.m ` | | ` ] ] { ] { | ] ] / ` ] / { / ` _ ^ f ",
"../ X... .| | | | | | | { ] ` ] { { ] _ ] { { / d.t.I ) P U _ _ P L / ! ( ] I.j.4.( ` { ] | ` _ ` { ` _ ] ` _ _ ` ` _ ` ^ ` ^ G ",
".._ X...| | | | | ` | ] ] } ] | { { ` / { ` { ) j u.i.N n b V Y E E } ! C h.k.e.d ` { { { { ] ] ] ] { ` ] ` ] ] ] _ ] ] ] ` ^ G ",
"| ^ ....| ] | { [ | { _ _ ] _ ] [ ` ^ ^ { _ ] ^ i x u.j.e.2.s.F.I W V h.s.j.i.m _ ` { { { ] { _ ^ ` _ ` _ ] / ^ ` ] ] ] ] / ^ f ",
"X.] #.X...| ........| { | | | | | ..{ { | | | ] J ( M 6.j.l.l.c.d.g.p.z.K.L.A.] ......` ....| | { { { | | | ] { { { { { | { { J ",
"K G L J J G G J J G G G 7 S G G S f ^ f G G G 7 4 L f s 3.r.a.y.c.s.5.; y p 3.H G G G G L f L f L G G L f J f J G G G G G G G 4 ",
"f f f f e 7 7 7 f 7 4 4 1 4 4 7 7 4 4 4 4 3 e 4 4 4 4 3 h l 4 l h h 0 3 3 w ; e 7 7 7 4 7 4 4 7 7 4 7 1 3 4 4 4 4 4 4 4 3 4 4 4 ",
"f f H f f f 7 f f f f f 3 4 7 e u 7 7 7 4 u 7 u 7 7 4 4 9 r 6 r q q r 4 7 7 9 4 4 7 7 f f f 7 4 7 7 f 4 4 7 4 7 7 e u 7 7 4 7 7 ",
"f f H f f 7 7 f 7 f u 7 1 4 7 7 7 7 7 4 4 7 4 4 4 7 4 4 8 4 7 r 8 6 6 3 4 7 9 e 7 7 7 f 7 7 7 4 7 4 7 4 4 4 4 4 7 7 7 4 7 4 7 4 ",
"f f f f 7 7 f 7 7 u 7 4 1 4 7 7 u 7 4 4 7 7 7 u 7 4 4 7 7 7 6 9 w 4 7 4 4 7 8 e 7 7 f 7 u u 7 7 4 7 u 3 4 7 3 4 7 7 7 7 4 3 4 7 ",
"u u f u 7 7 f 7 u 7 4 4 1 u 7 4 7 4 4 4 u 7 7 4 4 3 4 7 7 7 4 8 8 4 7 3 4 7 e 4 7 7 7 u 7 7 u 7 4 7 e 4 4 u 4 4 7 e 7 7 7 4 4 4 ",
"f f f f f 7 u 7 7 7 7 7 3 4 7 7 7 7 4 7 4 4 7 7 7 7 7 4 7 7 7 q w 6 7 3 7 7 7 7 7 7 7 7 7 7 7 7 7 7 7 4 7 7 7 7 7 4 7 7 4 4 4 4 ",
"f f f 7 f u 7 f 7 7 7 e 1 4 e 7 4 u u 7 7 4 7 4 4 7 4 4 7 7 4 4 7 7 7 4 3 7 7 7 7 7 7 f f f 7 7 7 7 7 4 4 7 7 7 7 3 7 7 6 4 7 4 ",
"7 u 7 7 4 4 7 3 7 7 4 4 1 3 4 4 4 4 4 4 3 3 4 4 4 4 4 4 4 4 4 4 7 4 4 3 4 4 4 7 7 4 7 7 7 7 7 4 7 4 4 3 3 4 4 4 4 4 7 7 4 4 4 4 ",
"2 2 3 3 2 1 @ 2 3 2 2 1 @ @ 3 3 4 1 1 3 1 1 1 1 1 2 1 2 3 3 3 3 3 1 1 1 3 3 3 1 1 3 3 4 3 3 3 1 3 3 4 3 1 3 1 1 3 3 2 2 2 @ 3 @ ",
"7 4 u u 7 7 u u u u 7 7 4 u 7 e f 4 e 7 7 7 7 4 1 7 4 7 4 7 4 4 e 4 u u u 7 7 6 7 u u f u u f 7 7 7 7 7 7 7 4 7 4 7 7 7 e 7 7 2 ",
"4 3 u 4 4 4 4 4 4 7 4 3 3 4 5 4 4 4 4 4 4 4 4 3 1 4 4 4 4 e 7 3 3 4 4 7 4 4 4 4 4 7 4 u 7 7 7 6 4 4 4 7 7 4 4 3 4 4 e 4 4 4 4 1 ",
"4 4 u 4 4 4 7 4 4 4 4 3 3 4 4 4 4 4 1 4 4 4 4 3 1 4 4 4 4 7 4 4 4 4 4 4 7 7 4 4 4 4 7 7 u 7 4 4 3 4 7 4 4 7 4 3 4 4 7 4 4 4 4 2 ",
"4 3 7 7 7 7 7 7 7 7 4 4 e 7 4 4 4 4 4 4 4 4 7 4 3 e 4 4 4 4 4 e 4 7 4 7 7 4 f 4 7 7 7 u 7 7 7 7 4 7 4 4 7 4 7 4 e 4 4 e 4 4 e 2 ",
"5 3 7 4 u 7 4 7 7 3 7 7 7 4 4 7 4 4 4 4 4 4 4 1 2 7 4 4 q 4 4 4 4 4 4 4 4 4 7 7 7 7 7 7 7 7 7 7 7 7 4 4 4 4 3 7 4 4 5 4 4 4 7 2 ",
"4 4 u 7 7 7 4 4 f 4 4 7 7 4 4 7 4 4 4 4 3 4 4 3 2 4 e 4 4 e 4 4 4 4 4 7 4 7 7 7 7 7 u 7 f 7 7 7 7 4 7 7 7 4 4 4 4 4 4 4 4 4 4 2 ",
"4 4 u 7 4 7 7 7 7 7 7 7 4 4 4 7 4 4 4 4 4 4 7 1 3 6 4 4 4 4 4 e 3 4 7 4 4 u 4 4 4 7 7 f 7 7 4 7 4 7 7 7 4 4 6 4 4 e e 4 4 3 4 2 ",
"1 1 1 1 1 1 1 1 1 1 1 1 1 2 2 @ 1 1 1 1 1 1 1 1 1 2 1 2 1 1 2 2 1 1 1 1 3 1 1 3 2 4 2 1 3 3 3 2 2 2 2 2 1 1 1 1 2 2 2 2 3 1 2 @ ",
"4 4 4 4 3 3 4 6 4 4 3 3 + 3 3 6 4 4 1 1 4 1 4 1 3 2 3 3 4 4 2 2 1 3 3 O 3 3 2 2 4 4 4 4 3 4 3 4 3 2 4 1 + 4 3 2 2 3 3 3 3 3 3 3 ",
"7 7 7 7 4 4 4 7 7 4 4 4 1 e 7 4 4 4 4 4 4 4 4 4 7 4 7 4 7 4 7 4 4 7 7 1 7 7 4 4 7 7 f 7 7 7 u 7 6 6 7 4 1 7 4 4 4 5 e 7 7 4 3 4 ",
"7 7 4 7 4 4 6 4 4 3 4 4 @ 4 3 4 4 4 4 4 4 4 4 4 4 4 4 4 4 4 4 4 4 4 4 1 4 7 7 4 7 7 7 7 7 7 7 7 4 7 7 3 1 4 6 4 4 4 7 4 3 6 4 4 ",
"7 7 7 7 7 4 4 7 4 3 4 4 @ 3 4 7 7 4 4 6 6 4 4 4 4 4 4 4 7 4 4 4 4 4 4 1 4 7 7 6 7 4 7 7 7 7 4 4 7 7 7 4 @ 4 3 4 4 6 4 6 4 4 4 4 ",
"7 G 7 7 7 7 4 7 7 7 7 4 @ 7 7 7 7 7 7 7 4 7 6 4 4 6 4 4 7 7 7 4 4 4 4 1 7 7 7 7 7 7 7 f f 7 7 4 7 7 7 4 1 4 4 7 7 7 7 7 4 4 7 4 ",
"o O + O o X o O + O O o X O O + + + o o O O O + + + o o + + + 1 + + + o + 1 1 1 O @ 1 1 1 1 1 O + 1 1 O o @ O @ @ + + + + o O + ",
"                              .                                         .       . . . . .   . . .                               "
};
