/* XPM */
static char *_1695652228[] = {
/* columns rows colors chars-per-pixel */
"64 64 66 1 ",
"  c #464543",
". c #484745",
"X c #4A4846",
"o c #4E4D4B",
"O c #504F4D",
"+ c #585246",
"@ c #52514E",
"# c #59534D",
"$ c #56584B",
"% c #585A4F",
"& c #565553",
"* c #585755",
"= c #575A53",
"- c #5A5956",
"; c #565658",
": c #5A565A",
"> c #5D5C5A",
", c #625C4E",
"< c #655F55",
"1 c #605F5D",
"2 c #5B6156",
"3 c #5F605B",
"4 c #6A6347",
"5 c #6E684B",
"6 c #646156",
"7 c #6B6556",
"8 c #6E6850",
"9 c #62615E",
"0 c #6A655D",
"q c #716B52",
"w c #756F5C",
"e c #767155",
"r c #7A7456",
"t c #75705C",
"y c #7A735C",
"u c #5E5D61",
"i c #625E62",
"p c #656462",
"a c #686765",
"s c #676863",
"d c #696866",
"f c #69676A",
"g c #6D6C6A",
"h c #736E63",
"j c #706F6D",
"k c #757066",
"l c #787262",
"z c #72706E",
"x c #757472",
"c c #797674",
"v c #7A7977",
"b c #7C7B79",
"n c #807F7D",
"m c #8C866C",
"M c #868070",
"N c #898471",
"B c #8E8870",
"V c #81807E",
"C c #8A857F",
"Z c #8C887C",
"A c #908A7A",
"S c #8C8686",
"D c #8D8882",
"F c #938D81",
"G c #918E89",
"H c #9A9483",
/* pixels */
">&@&>*>>ooXdx>>>p>pss>pp->>&*&*&**>>99gdpppp>>99929sifi:::::<O1<",
">&&>*>>*oX@zx>>*>;ppp>>>>p*&;**&3>3>9>d>>ppppp>33=3g0i::::#:1O9-",
"p*&p>pp*& >xx>>;>>9pp>>>>p*&>**&p>9up9gp>ppppp>>p>pg004+###:*&p>",
"d--93p>&o.dxx>>>>*ppp>>p>p>>>**&**>**>gd1p3>>>>p>-10<4+++++:*@:*",
"g1>>gd>&o&gpgp>->*>pp->9pggddp>p>>>**;gddppppppppi00ln444q8ww6<i",
"g9>>xg*>*>gpgp>>**>p>>9>>dppp>>>p9>>9pzspppp>1u>110<4nn55qewl7##",
"g->pgp&*9>ssdp9>**>9p>99pgggdpdddpp>ppxpdgjgdpppiid0qn4nmBHADDni",
"x>9ggg*>d>pgppp>>*p9p>>9>gspdddxgddp9>xxdggppppiiia<7<,4NmHZDGS<",
"g>>xgg>gp*fsppp>&&>p339>>ggddddddppppuggpddp>>>>:uip1<*-hjh6<**=",
"p>*ppgsgp>xzp3p>**>p>pp>-fgddsdpppp>33p>p9393pp>>uppp>*;90as1>--",
"d>&>ppdp>>xzp>>>&*39upp9>jxbbxvxxczdggj;99ppdggf>3>pp>@oO@--=%%$",
"f>&pd>ppppdgdu>*@;>>>99-&sgxxxxxxxxgxjg*>>p9spspp>9pp>u@O&&==<=%",
"jppgxpgdddgdzdpp3fgggfspsggdddggggjjjjxsp>ppdppp9upffpuuuiiiaaaa",
">>3>ppgpsggdxpddgcbnnSbbbx>>>>>&;*-*>=pp>@o&p>>@;&ufppfuifffgfff",
">*>&*3p99gdpzppgszxxvvxbbx>*-*&&*&&o&@>&*XXo>>*oOX*p>-36-10a0aaa",
"p&>->>>ppgppxdpdpfspgspgdp>>>*>>-*&&**>o@.oop**@#O*s6307=-a0010a",
">>>*>>3pppppxgdpppppddgdddp3p>>>*&&-**>*@o*o>&***X&a>3>9>6pp9pd9",
"p>>**>>u>pp>ddppppppdddpdg>>p>>--&&-*>3**@@o&*>p1O1a>99>>pdp9ddp",
"p>>*>>39ppp>ppppppddgggdgd>>>9>->*&-*;i>>;ooX>pp11aj>pp>>ppdpdgs",
"p>**>>p>ppp1dpppdddpdggggg>>u>>&>&&>>>p>p>oX*ppp19jf>pp>pppppddd",
"f>**>>p1p1>>fp>ppp99ppdpdg3>>>-**&&>>3p>>>o.pdpp19ggp999pdspppdd",
"p>**>>1pp1>>gp>>>99ppspppf>>**-;*&&>>pp>p>oodp>911jga>>ppdppddpp",
"p>>>9>9pp>>3gp3p9ppppppppp******&&@>>pp>p>&>>p>><>jdd9>9ppppddpd",
"p>>>>>>ppp>3dp>p99u3>pppsp*&*>>&*&@>9pd>3>*d*>->>ixdd99pppppddpd",
"g>>9*>d>ppppg>*3>>9>>**>3p&&****&&&*>>p>p>gz>>d>>pjx9>>>>p9>s9pp",
"g9pxppgpdggdxgfdgdggjxjgjz>*-p3pp>>ppdgsgpggppgpppsggdfppddpdppp",
">&9zpppp9p>pvjgpdgxxxbcxsj;@@>>>ppppgzxdppp>3p>pp>>pzzgzdggpp>9>",
"*&>g>pp3p>>px>*&*9gggjgg3g>@o*>>>>>pgzxfppp9pppp>9psjddxgzgpp>>p",
">*>dpfpp993dx>&&o*fjggpg9g>&@*>>>>*>sgxppddddddppppgjdpxxzxpd9pp",
"*@9ppspp9>ppxg>&@&>gxxdppg*@@>>>>>;>pgg>p9ppppgppppgxgsdggzpppsg",
"*&sppdppppp>xx*X*o*3gxdpsj>&&;3>>>**>dj3p9upppppp*>pggdpggg>9ppg",
">&j9spppp>f>dpo**&&*sxf3ujp*@&>9*>&&>dgp>p39sp9p>>>pgxgsggg>>dfg",
"**pppppdppp>x>XOo>>pppd>3xp*&&>**3*X>pgppp>>pp9>>&>3zcgpdga1i1dh",
"**p>>ppppfppxpOo&>>ddddp>xp>&o*>*>9o*>ppppppp3>>>&>pjxfsgga1aaia",
"*>p>pgpp3p9pgp>o**pppp>ppxgp*@*>>ppo*pppp>p>>>>:&@*pdxsdsdp1i00i",
"&>>>pgpppp>dx9>*>9ddpp>9pzf3>&**>>>o&pp>p>>>ppp>>>;ppbdgddi1fgda",
"&>p>pdppp>>gg>>&*dggp>pppggpp>*>>p>*&pd>>p>pppdpsppp>xsd0fi<0ff0",
"&>>>pp3>pppgg&&o*dpdp>f3>gjsp>*>*>*>*>d>ppdpppddffs9>gpd0fiiihhi",
"ddppdddpdpsfzpp>>p9p3>p9dxxgdgsfpfdgsggpppddddpssps9>spjfjhffjxj",
"gp>pppp>p39*pppp>&&&*>*;ppp>pgp9s3pgpgp>>>>>ppp*3;>;-*>daffihnzf",
"spippgd39>p>psp>*>&&>*&;>dpo>3pddpppxgp>>>*>pp9>p1>&**-ai0g0ann<",
"jp3p>>>>>>>>dpp>&&@@**&>>sp@pppgdd>ubd99>>->pp>>3>>>>>*piagginni",
"jfppp>ppppp9dpp>&&@&->->>fp*pgddpz>>xp99;>*>pp>>>p1-**:1<igg<njf",
"gppspp>pp>>>dpp>&&@&*>>>>gs*dgdp&d>-dap1>**>pp>>u>1*&*::1iggijnh",
"xppgdpp>3>ppdpp>&&@@*>>**gd*pdg>&>p9pgfp>>*>>p>>3up>@::<i<n0in0f",
"xddzxddpppppdpp>*@&&*>>**jd*9px>>@>pddpp9>&>>p>>3>p>:11&iiinin0n",
"xdddppp>>>>>ppp>;&@&*>9>-gp-3pxp-o@>zsp33>&-pp>p>;pp1i::<iff:nnf",
"ppppp>9>>>>>pp3>&@@&*>9**pp:>>dp-&.*xgdp>>&*99>p9>>3<i<<ii0<:f0n",
">>p3ppddppp>ppp*&o@**3p**d>;p>>d>ooogxp>>-&>p>p>p>>pp>*->>pppdxd",
"p*>>ppppdpp>ppp*&@@**>>>*p*&->>>>&o.pbg>>&&;p>pp>*>99p>;>>p>>pxg",
"p>ppdgggpp3>dsp>*&*>>>>>>s-&*>>>*&@o>xg>>->>ppp>>>9399>>spp>pggj",
"p9udpxxxxxbxxgpppppddggggj9>>pddgppgpxbbxgggxggdgddp>p>>p>>>>p>p",
"-@X@o>>dpsgpgp>>9>>>psppdp*-&*>3p3pxpdxbxddpgdp3ppp*******&&**@@",
"&o@&*3pp>-->gpu>pp>pddppgs>9>*>9pppgpgbbxpgpggppp>p3>>****&&&&&&",
"@.@*>pp>p>->dp>>9>>>fp>pdg>>**;9ppppsdbbxpjdggppp>>>>>>>>***&&**",
">@&&ppp>>>>>g9>p>99pdppgpf>>>*>>p3ppppbVgpgpggppp>3ip>>p3*--&*;&",
">>>**>pdppp>dp>p>>9ppppdfs>-*>>>9>ppp9xVxpppddpp9>up>>>>>***;>**",
">>>>&*>pp>**pp3pp>ppdsddddp>*->>>pppp>xbzdppdd>p9>pp3>33;****3;*",
">@&&XoX&>>ppgp>pp>pdppddggp--*91>pppp>bndpppddpp9>p>>>>>*&***>>>",
"*Xoo&o...&ppxdp>p>pdppdpdgp->>>>up>3ppbxdspppd>pp9p>>>>****&*3>>",
"XX@@o***&*>>ggp>9>ppppsfdgp->>>9up3pppzpdddppd1ppp9>**;*>&*&*p>>",
"&ooo&>>>pp3>gdp99>pddpdpdj>*>>>91pp>>>gppdpppp>1>>3>*&-*>*&o*3p>",
"f*@@-p>>;>p>dppp>>pppppppj9-1>>pp1p>3pgdpppppp>>>>>>&&**;**@*>>>",
"p*&&*>>>>9p>dp>>>>>p>pp3pxp9dp>pd>dpgxdpdapppp>pp>>>&&>>***&&>>*"
};
